<svg xmlns="http://www.w3.org/2000/svg" xmlns:xlink="http://www.w3.org/1999/xlink" viewBox="0 0 463.7 376.26"><defs><style>.cls-1{isolation:isolate;}.cls-2{fill:#f1f1f4;}.cls-3{fill:#e0f3ff;}.cls-4{fill:url(#Áåçûìÿííûé_ãðàäèåíò_29);}.cls-5{fill:url(#Áåçûìÿííûé_ãðàäèåíò_28);}.cls-6{fill:#e5e2ff;}.cls-7{fill:url(#Áåçûìÿííûé_ãðàäèåíò_28-2);}.cls-8,.cls-9{opacity:0.62;}.cls-118,.cls-17,.cls-18,.cls-19,.cls-22,.cls-24,.cls-30,.cls-33,.cls-35,.cls-38,.cls-39,.cls-40,.cls-41,.cls-42,.cls-43,.cls-44,.cls-45,.cls-46,.cls-47,.cls-48,.cls-49,.cls-50,.cls-51,.cls-52,.cls-53,.cls-54,.cls-57,.cls-58,.cls-59,.cls-60,.cls-61,.cls-62,.cls-66,.cls-77,.cls-8,.cls-80,.cls-81,.cls-82,.cls-86,.cls-87,.cls-9,.cls-94,.cls-95,.cls-96,.cls-97,.cls-98,.cls-99{mix-blend-mode:multiply;}.cls-8{fill:url(#Áåçûìÿííûé_ãðàäèåíò_27);}.cls-9{fill:url(#Áåçûìÿííûé_ãðàäèåíò_94);}.cls-10,.cls-118,.cls-13,.cls-14,.cls-22,.cls-24,.cls-39,.cls-40,.cls-41,.cls-42,.cls-43,.cls-44,.cls-45,.cls-46,.cls-47,.cls-49,.cls-51,.cls-52,.cls-53,.cls-54,.cls-57,.cls-59,.cls-60,.cls-61,.cls-62,.cls-82{opacity:0.5;}.cls-10,.cls-13,.cls-14{mix-blend-mode:screen;}.cls-10{fill:url(#Áåçûìÿííûé_ãðàäèåíò_95);}.cls-11{fill:#fff;}.cls-12{fill:url(#Áåçûìÿííûé_ãðàäèåíò_74);}.cls-13{fill:url(#Áåçûìÿííûé_ãðàäèåíò_83);}.cls-14{fill:url(#Áåçûìÿííûé_ãðàäèåíò_83-2);}.cls-15{fill:url(#Áåçûìÿííûé_ãðàäèåíò_26);}.cls-16{fill:url(#Áåçûìÿííûé_ãðàäèåíò_26-2);}.cls-17,.cls-18,.cls-19,.cls-48{opacity:0.76;}.cls-17{fill:url(#Áåçûìÿííûé_ãðàäèåíò_70);}.cls-18{fill:url(#Áåçûìÿííûé_ãðàäèåíò_70-2);}.cls-19{fill:url(#Áåçûìÿííûé_ãðàäèåíò_70-3);}.cls-20{fill:#fe9083;}.cls-21{fill:url(#Áåçûìÿííûé_ãðàäèåíò_354);}.cls-22{fill:url(#Áåçûìÿííûé_ãðàäèåíò_70-4);}.cls-23{fill:url(#Áåçûìÿííûé_ãðàäèåíò_26-3);}.cls-24{fill:url(#Áåçûìÿííûé_ãðàäèåíò_70-5);}.cls-25{fill:url(#Áåçûìÿííûé_ãðàäèåíò_178);}.cls-26{fill:url(#Áåçûìÿííûé_ãðàäèåíò_55);}.cls-27{fill:#cb4d7a;}.cls-28{fill:#ee8183;}.cls-29{fill:url(#Áåçûìÿííûé_ãðàäèåíò_71);}.cls-30,.cls-35,.cls-66,.cls-77,.cls-80,.cls-81,.cls-92,.cls-94{opacity:0.6;}.cls-30{fill:url(#Áåçûìÿííûé_ãðàäèåíò_48);}.cls-31{fill:url(#Áåçûìÿííûé_ãðàäèåíò_71-2);}.cls-32{fill:#e28183;}.cls-33,.cls-38{opacity:0.91;}.cls-33{fill:url(#Áåçûìÿííûé_ãðàäèåíò_73);}.cls-34{fill:url(#Áåçûìÿííûé_ãðàäèåíò_71-3);}.cls-35{fill:url(#Áåçûìÿííûé_ãðàäèåíò_48-2);}.cls-36{fill:url(#Áåçûìÿííûé_ãðàäèåíò_64);}.cls-37{fill:url(#Áåçûìÿííûé_ãðàäèåíò_64-2);}.cls-38{fill:url(#Áåçûìÿííûé_ãðàäèåíò_73-2);}.cls-39{fill:url(#Áåçûìÿííûé_ãðàäèåíò_70-6);}.cls-40{fill:url(#Áåçûìÿííûé_ãðàäèåíò_70-7);}.cls-41{fill:url(#Áåçûìÿííûé_ãðàäèåíò_4);}.cls-42{fill:url(#Áåçûìÿííûé_ãðàäèåíò_4-2);}.cls-43{fill:url(#Áåçûìÿííûé_ãðàäèåíò_4-3);}.cls-44{fill:url(#Áåçûìÿííûé_ãðàäèåíò_4-4);}.cls-45{fill:url(#Áåçûìÿííûé_ãðàäèåíò_4-5);}.cls-46{fill:url(#Áåçûìÿííûé_ãðàäèåíò_4-6);}.cls-47{fill:url(#Áåçûìÿííûé_ãðàäèåíò_4-7);}.cls-48{fill:url(#Áåçûìÿííûé_ãðàäèåíò_70-8);}.cls-49{fill:url(#Áåçûìÿííûé_ãðàäèåíò_70-9);}.cls-50,.cls-58,.cls-95,.cls-96,.cls-97,.cls-98{opacity:0.3;}.cls-50{fill:url(#Áåçûìÿííûé_ãðàäèåíò_70-10);}.cls-51{fill:url(#Áåçûìÿííûé_ãðàäèåíò_4-8);}.cls-52{fill:url(#Áåçûìÿííûé_ãðàäèåíò_70-11);}.cls-53{fill:url(#Áåçûìÿííûé_ãðàäèåíò_4-9);}.cls-54{fill:url(#Áåçûìÿííûé_ãðàäèåíò_4-10);}.cls-55{fill:url(#Áåçûìÿííûé_ãðàäèåíò_25);}.cls-56{fill:#ebefff;}.cls-57{fill:url(#Áåçûìÿííûé_ãðàäèåíò_70-12);}.cls-58{fill:url(#Áåçûìÿííûé_ãðàäèåíò_70-13);}.cls-59{fill:url(#Áåçûìÿííûé_ãðàäèåíò_70-14);}.cls-60{fill:url(#Áåçûìÿííûé_ãðàäèåíò_70-15);}.cls-61{fill:url(#Áåçûìÿííûé_ãðàäèåíò_70-16);}.cls-62{fill:#7a4ac0;}.cls-63{fill:url(#Áåçûìÿííûé_ãðàäèåíò_71-4);}.cls-64{fill:url(#Áåçûìÿííûé_ãðàäèåíò_71-5);}.cls-65{fill:url(#Áåçûìÿííûé_ãðàäèåíò_387);}.cls-66{fill:url(#Áåçûìÿííûé_ãðàäèåíò_48-3);}.cls-67{fill:#38368e;}.cls-68{fill:url(#Áåçûìÿííûé_ãðàäèåíò_59);}.cls-69{fill:url(#Áåçûìÿííûé_ãðàäèåíò_184);}.cls-70{fill:#ffebed;}.cls-71{fill:#7f9ec9;}.cls-72{fill:#131163;}.cls-73{fill:#c6659c;}.cls-74{fill:#cb5f7d;}.cls-75{fill:#9f4a8b;}.cls-76{fill:#ffbcaf;}.cls-77{fill:url(#Áåçûìÿííûé_ãðàäèåíò_48-4);}.cls-78{fill:url(#Áåçûìÿííûé_ãðàäèåíò_292);}.cls-79{fill:#d2726c;}.cls-80{fill:url(#Áåçûìÿííûé_ãðàäèåíò_35);}.cls-81{fill:url(#Áåçûìÿííûé_ãðàäèåíò_52);}.cls-82{fill:url(#Áåçûìÿííûé_ãðàäèåíò_397);}.cls-83{fill:url(#Áåçûìÿííûé_ãðàäèåíò_141);}.cls-84{fill:url(#Áåçûìÿííûé_ãðàäèåíò_141-2);}.cls-85{fill:url(#Áåçûìÿííûé_ãðàäèåíò_141-3);}.cls-86,.cls-87{opacity:0.8;}.cls-86{fill:url(#Áåçûìÿííûé_ãðàäèåíò_285);}.cls-87{fill:url(#Áåçûìÿííûé_ãðàäèåíò_285-2);}.cls-88{fill:#34c7ff;}.cls-89{fill:url(#Áåçûìÿííûé_ãðàäèåíò_141-4);}.cls-90{fill:url(#Áåçûìÿííûé_ãðàäèåíò_141-5);}.cls-91{fill:url(#Áåçûìÿííûé_ãðàäèåíò_141-6);}.cls-92{fill:#36d1f7;}.cls-93{fill:#744ca2;}.cls-94{fill:url(#Áåçûìÿííûé_ãðàäèåíò_89);}.cls-95{fill:url(#Áåçûìÿííûé_ãðàäèåíò_85);}.cls-96{fill:url(#Áåçûìÿííûé_ãðàäèåíò_85-2);}.cls-97{fill:url(#Áåçûìÿííûé_ãðàäèåíò_85-3);}.cls-98{fill:url(#Áåçûìÿííûé_ãðàäèåíò_85-4);}.cls-99{fill:#d1d4fb;}.cls-100,.cls-119{mix-blend-mode:soft-light;}.cls-101{fill:#e0ffff;}.cls-102{fill:url(#Áåçûìÿííûé_ãðàäèåíò_65);}.cls-103{fill:url(#Áåçûìÿííûé_ãðàäèåíò_14);}.cls-104{opacity:0.81;fill:url(#Áåçûìÿííûé_ãðàäèåíò_115);}.cls-105{fill:#473da2;}.cls-106{fill:url(#Áåçûìÿííûé_ãðàäèåíò_302);}.cls-107{fill:url(#Áåçûìÿííûé_ãðàäèåíò_302-2);}.cls-108{fill:url(#Áåçûìÿííûé_ãðàäèåíò_322);}.cls-109{fill:url(#Áåçûìÿííûé_ãðàäèåíò_322-2);}.cls-110{fill:url(#Áåçûìÿííûé_ãðàäèåíò_25-2);}.cls-111{fill:url(#Áåçûìÿííûé_ãðàäèåíò_25-3);}.cls-112,.cls-114{opacity:0.73;}.cls-112{fill:url(#Áåçûìÿííûé_ãðàäèåíò_97);}.cls-113{fill:#953da2;}.cls-114{fill:url(#Áåçûìÿííûé_ãðàäèåíò_97-2);}.cls-115,.cls-116,.cls-117,.cls-118,.cls-119,.cls-123,.cls-124,.cls-125,.cls-126{fill-rule:evenodd;}.cls-115{fill:url(#Áåçûìÿííûé_ãðàäèåíò_206);}.cls-116{fill:url(#Áåçûìÿííûé_ãðàäèåíò_206-2);}.cls-117{fill:url(#Áåçûìÿííûé_ãðàäèåíò_107);}.cls-118{fill:#601734;}.cls-119{fill:#b3d9ff;}.cls-120{fill:#ff1d9c;}.cls-121{fill:#6877ff;}.cls-122{fill:#4f31e0;}.cls-123{fill:url(#Áåçûìÿííûé_ãðàäèåíò_107-2);}.cls-124{fill:url(#Áåçûìÿííûé_ãðàäèåíò_206-3);}.cls-125{fill:url(#Áåçûìÿííûé_ãðàäèåíò_107-3);}.cls-126{fill:url(#Áåçûìÿííûé_ãðàäèåíò_206-4);}</style><linearGradient id="Áåçûìÿííûé_ãðàäèåíò_29" x1="92.49" y1="218.88" x2="92.49" y2="147.69" gradientTransform="matrix(0.91, -0.42, 0.42, 0.91, -70.85, 52.81)" gradientUnits="userSpaceOnUse"><stop offset="0" stop-color="#dbccff"/><stop offset="1" stop-color="#d1bbff"/></linearGradient><linearGradient id="Áåçûìÿííûé_ãðàäèåíò_28" x1="92.49" y1="221.66" x2="92.49" y2="150.47" gradientTransform="matrix(0.91, -0.42, 0.42, 0.91, -70.85, 52.81)" gradientUnits="userSpaceOnUse"><stop offset="0" stop-color="#b5a6e7"/><stop offset="1" stop-color="#7760bf"/></linearGradient><linearGradient id="Áåçûìÿííûé_ãðàäèåíò_28-2" x1="92.49" y1="203.96" x2="92.49" y2="173.95" xlink:href="#Áåçûìÿííûé_ãðàäèåíò_28"/><linearGradient id="Áåçûìÿííûé_ãðàäèåíò_27" x1="88.23" y1="174.55" x2="96.75" y2="174.55" gradientTransform="matrix(0.91, -0.42, 0.42, 0.91, -70.85, 52.81)" gradientUnits="userSpaceOnUse"><stop offset="0" stop-color="#8b8be0"/><stop offset="1" stop-color="#a177b7"/></linearGradient><linearGradient id="Áåçûìÿííûé_ãðàäèåíò_94" x1="92.49" y1="176.53" x2="92.49" y2="171.37" gradientTransform="matrix(0.91, -0.42, 0.42, 0.91, -70.85, 52.81)" gradientUnits="userSpaceOnUse"><stop offset="0" stop-color="#fff"/><stop offset="1" stop-color="#a177b7"/></linearGradient><linearGradient id="Áåçûìÿííûé_ãðàäèåíò_95" x1="96.99" y1="207.02" x2="96.99" y2="173.94" gradientTransform="matrix(0.91, -0.42, 0.42, 0.91, -70.85, 52.81)" gradientUnits="userSpaceOnUse"><stop offset="0"/><stop offset="1" stop-color="#fff"/></linearGradient><linearGradient id="Áåçûìÿííûé_ãðàäèåíò_74" x1="217.76" y1="368.08" x2="217.76" y2="278.87" gradientUnits="userSpaceOnUse"><stop offset="0" stop-color="#6456c0"/><stop offset="1" stop-color="#5f2c95"/></linearGradient><radialGradient id="Áåçûìÿííûé_ãðàäèåíò_83" cx="133.16" cy="354.43" r="27.03" gradientTransform="matrix(0, 0.66, -1.71, 0, 781.62, 247.69)" gradientUnits="userSpaceOnUse"><stop offset="0" stop-color="#4b474b"/><stop offset="1"/></radialGradient><radialGradient id="Áåçûìÿííûé_ãðàäèåíò_83-2" cx="269.48" cy="320.68" r="27.03" gradientTransform="matrix(0.66, 0, 0, 1.71, 78.81, -213.9)" xlink:href="#Áåçûìÿííûé_ãðàäèåíò_83"/><linearGradient id="Áåçûìÿííûé_ãðàäèåíò_26" x1="188.89" y1="336.76" x2="212.29" y2="336.76" gradientUnits="userSpaceOnUse"><stop offset="0" stop-color="#9e8cef"/><stop offset="1" stop-color="#caafee"/></linearGradient><linearGradient id="Áåçûìÿííûé_ãðàäèåíò_26-2" x1="404.06" y1="336.76" x2="427.46" y2="336.76" gradientTransform="matrix(-1, 0, 0, 1, 647.63, 0)" xlink:href="#Áåçûìÿííûé_ãðàäèåíò_26"/><linearGradient id="Áåçûìÿííûé_ãðàäèåíò_70" x1="214.62" y1="368.08" x2="214.62" y2="278.87" gradientUnits="userSpaceOnUse"><stop offset="0" stop-color="#ccf"/><stop offset="1" stop-color="#755cbb"/></linearGradient><linearGradient id="Áåçûìÿííûé_ãðàäèåíò_70-2" x1="222.25" y1="318.43" x2="222.25" y2="294.1" xlink:href="#Áåçûìÿííûé_ãðàäèåíò_70"/><linearGradient id="Áåçûìÿííûé_ãðàäèåíò_70-3" x1="194.07" y1="309.48" x2="194.07" y2="285.65" xlink:href="#Áåçûìÿííûé_ãðàäèåíò_70"/><linearGradient id="Áåçûìÿííûé_ãðàäèåíò_354" x1="221.01" y1="144.53" x2="221.01" y2="108.92" gradientUnits="userSpaceOnUse"><stop offset="0" stop-color="#d5cdf8"/><stop offset="1" stop-color="#f3edfb"/></linearGradient><linearGradient id="Áåçûìÿííûé_ãðàäèåíò_70-4" x1="202.67" y1="126.69" x2="239.34" y2="126.69" xlink:href="#Áåçûìÿííûé_ãðàäèåíò_70"/><linearGradient id="Áåçûìÿííûé_ãðàäèåíò_26-3" x1="210.52" y1="286.81" x2="210.52" y2="107.37" xlink:href="#Áåçûìÿííûé_ãðàäèåíò_26"/><linearGradient id="Áåçûìÿííûé_ãðàäèåíò_70-5" x1="136.05" y1="175" x2="179.75" y2="175" xlink:href="#Áåçûìÿííûé_ãðàäèåíò_70"/><linearGradient id="Áåçûìÿííûé_ãðàäèåíò_178" x1="134.7" y1="225.25" x2="134.7" y2="141.34" gradientUnits="userSpaceOnUse"><stop offset="0" stop-color="#9e8cef"/><stop offset="1" stop-color="#dac7f3"/></linearGradient><linearGradient id="Áåçûìÿííûé_ãðàäèåíò_55" x1="278.99" y1="201.07" x2="335.3" y2="201.07" gradientUnits="userSpaceOnUse"><stop offset="0" stop-color="#a999f1"/><stop offset="1" stop-color="#dac7f3"/></linearGradient><linearGradient id="Áåçûìÿííûé_ãðàäèåíò_71" x1="116.39" y1="129.9" x2="116.39" y2="107.78" gradientUnits="userSpaceOnUse"><stop offset="0.02" stop-color="#ffc2a9"/><stop offset="1" stop-color="#ff9595"/></linearGradient><linearGradient id="Áåçûìÿííûé_ãðàäèåíò_48" x1="130.32" y1="129.38" x2="130.32" y2="92.75" gradientUnits="userSpaceOnUse"><stop offset="0" stop-color="#ffeadb"/><stop offset="0.99" stop-color="#c27cb6"/></linearGradient><linearGradient id="Áåçûìÿííûé_ãðàäèåíò_71-2" x1="129.13" y1="154.29" x2="129.13" y2="97.83" xlink:href="#Áåçûìÿííûé_ãðàäèåíò_71"/><linearGradient id="Áåçûìÿííûé_ãðàäèåíò_73" x1="119.03" y1="145.48" x2="136.79" y2="145.48" gradientUnits="userSpaceOnUse"><stop offset="0.02" stop-color="#d1a1d6"/><stop offset="0.99" stop-color="#bd89c4"/></linearGradient><linearGradient id="Áåçûìÿííûé_ãðàäèåíò_71-3" x1="336.46" y1="188.68" x2="336.46" y2="113.18" xlink:href="#Áåçûìÿííûé_ãðàäèåíò_71"/><linearGradient id="Áåçûìÿííûé_ãðàäèåíò_48-2" x1="345.38" y1="164.49" x2="345.38" y2="126.98" xlink:href="#Áåçûìÿííûé_ãðàäèåíò_48"/><linearGradient id="Áåçûìÿííûé_ãðàäèåíò_64" x1="352.78" y1="151.54" x2="352.78" y2="134.73" gradientUnits="userSpaceOnUse"><stop offset="0" stop-color="#ffb0b0"/><stop offset="0.98" stop-color="#ffc2a9"/></linearGradient><linearGradient id="Áåçûìÿííûé_ãðàäèåíò_64-2" x1="362.53" y1="154.13" x2="362.53" y2="144.91" xlink:href="#Áåçûìÿííûé_ãðàäèåíò_64"/><linearGradient id="Áåçûìÿííûé_ãðàäèåíò_73-2" x1="323.09" y1="172.51" x2="340.24" y2="172.51" xlink:href="#Áåçûìÿííûé_ãðàäèåíò_73"/><linearGradient id="Áåçûìÿííûé_ãðàäèåíò_70-6" x1="299.23" y1="231.7" x2="299.23" y2="147.19" xlink:href="#Áåçûìÿííûé_ãðàäèåíò_70"/><linearGradient id="Áåçûìÿííûé_ãðàäèåíò_70-7" x1="113.15" y1="214.68" x2="254.5" y2="214.68" xlink:href="#Áåçûìÿííûé_ãðàäèåíò_70"/><linearGradient id="Áåçûìÿííûé_ãðàäèåíò_4" x1="237.77" y1="191.02" x2="264.79" y2="191.02" gradientUnits="userSpaceOnUse"><stop offset="0" stop-color="#ccedff"/><stop offset="1" stop-color="#755cbb"/></linearGradient><linearGradient id="Áåçûìÿííûé_ãðàäèåíò_4-2" x1="213.26" y1="238.44" x2="252.97" y2="238.44" xlink:href="#Áåçûìÿííûé_ãðàäèåíò_4"/><linearGradient id="Áåçûìÿííûé_ãðàäèåíò_4-3" x1="215.1" y1="256.39" x2="257.52" y2="256.39" xlink:href="#Áåçûìÿííûé_ãðàäèåíò_4"/><linearGradient id="Áåçûìÿííûé_ãðàäèåíò_4-4" x1="178.59" y1="211.94" x2="178.59" y2="164.33" xlink:href="#Áåçûìÿííûé_ãðàäèåíò_4"/><linearGradient id="Áåçûìÿííûé_ãðàäèåíò_4-5" x1="182.43" y1="215.94" x2="182.43" y2="179.85" xlink:href="#Áåçûìÿííûé_ãðàäèåíò_4"/><linearGradient id="Áåçûìÿííûé_ãðàäèåíò_4-6" x1="125.39" y1="169.81" x2="125.39" y2="142.54" xlink:href="#Áåçûìÿííûé_ãðàäèåíò_4"/><linearGradient id="Áåçûìÿííûé_ãðàäèåíò_4-7" x1="147.45" y1="145.8" x2="158.44" y2="145.8" xlink:href="#Áåçûìÿííûé_ãðàäèåíò_4"/><linearGradient id="Áåçûìÿííûé_ãðàäèåíò_70-8" x1="266.91" y1="211.94" x2="266.91" y2="161.4" xlink:href="#Áåçûìÿííûé_ãðàäèåíò_70"/><linearGradient id="Áåçûìÿííûé_ãðàäèåíò_70-9" x1="323.73" y1="201.07" x2="323.73" y2="174.66" xlink:href="#Áåçûìÿííûé_ãðàäèåíò_70"/><linearGradient id="Áåçûìÿííûé_ãðàäèåíò_70-10" x1="293.78" y1="199.89" x2="293.78" y2="179.7" xlink:href="#Áåçûìÿííûé_ãðàäèåíò_70"/><linearGradient id="Áåçûìÿííûé_ãðàäèåíò_4-8" x1="119.68" y1="171.55" x2="119.68" y2="164.05" xlink:href="#Áåçûìÿííûé_ãðàäèåíò_4"/><linearGradient id="Áåçûìÿííûé_ãðàäèåíò_70-11" x1="139.71" y1="194.41" x2="139.71" y2="153.43" xlink:href="#Áåçûìÿííûé_ãðàäèåíò_70"/><linearGradient id="Áåçûìÿííûé_ãðàäèåíò_4-9" x1="245.13" y1="165.57" x2="245.13" y2="134.73" xlink:href="#Áåçûìÿííûé_ãðàäèåíò_4"/><linearGradient id="Áåçûìÿííûé_ãðàäèåíò_4-10" x1="204.74" y1="161.4" x2="204.74" y2="118.84" xlink:href="#Áåçûìÿííûé_ãðàäèåíò_4"/><linearGradient id="Áåçûìÿííûé_ãðàäèåíò_25" x1="190.37" y1="169.18" x2="261.45" y2="169.18" gradientUnits="userSpaceOnUse"><stop offset="0" stop-color="#8642a0"/><stop offset="1" stop-color="#6456c0"/></linearGradient><linearGradient id="Áåçûìÿííûé_ãðàäèåíò_70-12" x1="196.49" y1="128.16" x2="242.75" y2="128.16" xlink:href="#Áåçûìÿííûé_ãðàäèåíò_70"/><linearGradient id="Áåçûìÿííûé_ãðàäèåíò_70-13" x1="315.42" y1="198.06" x2="315.42" y2="171.29" xlink:href="#Áåçûìÿííûé_ãðàäèåíò_70"/><linearGradient id="Áåçûìÿííûé_ãðàäèåíò_70-14" x1="277.57" y1="228.26" x2="277.57" y2="147.19" xlink:href="#Áåçûìÿííûé_ãðàäèåíò_70"/><linearGradient id="Áåçûìÿííûé_ãðàäèåíò_70-15" x1="190.41" y1="266.34" x2="190.41" y2="243.1" xlink:href="#Áåçûìÿííûé_ãðàäèåíò_70"/><linearGradient id="Áåçûìÿííûé_ãðàäèåíò_70-16" x1="235.56" y1="259.96" x2="235.56" y2="248.67" xlink:href="#Áåçûìÿííûé_ãðàäèåíò_70"/><linearGradient id="Áåçûìÿííûé_ãðàäèåíò_71-4" x1="235.06" y1="114.89" x2="235.06" y2="37.69" xlink:href="#Áåçûìÿííûé_ãðàäèåíò_71"/><linearGradient id="Áåçûìÿííûé_ãðàäèåíò_71-5" x1="206.28" y1="83.74" x2="206.28" y2="60.98" xlink:href="#Áåçûìÿííûé_ãðàäèåíò_71"/><linearGradient id="Áåçûìÿííûé_ãðàäèåíò_387" x1="245.79" y1="92.35" x2="246.75" y2="87.38" gradientUnits="userSpaceOnUse"><stop offset="0" stop-color="#e1616a"/><stop offset="1" stop-color="#ff8883"/></linearGradient><linearGradient id="Áåçûìÿííûé_ãðàäèåíò_48-3" x1="237.18" y1="88.54" x2="237.18" y2="38.81" xlink:href="#Áåçûìÿííûé_ãðàäèåíò_48"/><linearGradient id="Áåçûìÿííûé_ãðàäèåíò_59" x1="234.75" y1="68.18" x2="234.75" y2="58.32" gradientUnits="userSpaceOnUse"><stop offset="0" stop-color="#cf6074"/><stop offset="1" stop-color="#f37270"/></linearGradient><linearGradient id="Áåçûìÿííûé_ãðàäèåíò_184" x1="254.41" y1="71.3" x2="254.41" y2="62.73" gradientUnits="userSpaceOnUse"><stop offset="0" stop-color="#cf6074"/><stop offset="1" stop-color="#ff817f"/></linearGradient><linearGradient id="Áåçûìÿííûé_ãðàäèåíò_48-4" x1="255.21" y1="76.29" x2="255.21" y2="57" xlink:href="#Áåçûìÿííûé_ãðàäèåíò_48"/><linearGradient id="Áåçûìÿííûé_ãðàäèåíò_292" x1="236.1" y1="115.86" x2="236.1" y2="22.23" gradientUnits="userSpaceOnUse"><stop offset="0" stop-color="#2e33a0"/><stop offset="1" stop-color="#0665a5"/></linearGradient><linearGradient id="Áåçûìÿííûé_ãðàäèåíò_35" x1="260.69" y1="56.9" x2="260.69" y2="35.3" gradientUnits="userSpaceOnUse"><stop offset="0" stop-color="#ffeadb"/><stop offset="0.99" stop-color="#8860c7"/></linearGradient><linearGradient id="Áåçûìÿííûé_ãðàäèåíò_52" x1="231.26" y1="115.86" x2="231.26" y2="22.23" gradientUnits="userSpaceOnUse"><stop offset="0" stop-color="#ccc2db"/><stop offset="0.99" stop-color="#8860c7"/></linearGradient><linearGradient id="Áåçûìÿííûé_ãðàäèåíò_397" x1="237.53" y1="115.84" x2="237.53" y2="111.82" gradientUnits="userSpaceOnUse"><stop offset="0" stop-color="#776d7e"/><stop offset="1" stop-color="#9d68c2"/></linearGradient><linearGradient id="Áåçûìÿííûé_ãðàäèåíò_141" x1="249.34" y1="28.95" x2="249.34" y2="25.96" gradientUnits="userSpaceOnUse"><stop offset="0" stop-color="#1f77d1"/><stop offset="1" stop-color="#0686c9"/></linearGradient><linearGradient id="Áåçûìÿííûé_ãðàäèåíò_141-2" x1="230.3" y1="38.79" x2="230.3" y2="29.95" xlink:href="#Áåçûìÿííûé_ãðàäèåíò_141"/><linearGradient id="Áåçûìÿííûé_ãðàäèåíò_141-3" x1="262.32" y1="43.27" x2="262.32" y2="35.3" xlink:href="#Áåçûìÿííûé_ãðàäèåíò_141"/><linearGradient id="Áåçûìÿííûé_ãðàäèåíò_285" x1="209.59" y1="78.34" x2="199.4" y2="65.85" gradientUnits="userSpaceOnUse"><stop offset="0" stop-color="#ffeadb"/><stop offset="0.99" stop-color="#b060f4"/></linearGradient><linearGradient id="Áåçûìÿííûé_ãðàäèåíò_285-2" x1="210.66" y1="76.73" x2="205.65" y2="70.59" xlink:href="#Áåçûìÿííûé_ãðàäèåíò_285"/><linearGradient id="Áåçûìÿííûé_ãðàäèåíò_141-4" x1="229.71" y1="39.58" x2="246.97" y2="39.58" xlink:href="#Áåçûìÿííûé_ãðàäèåíò_141"/><linearGradient id="Áåçûìÿííûé_ãðàäèåíò_141-5" x1="254.06" y1="91.22" x2="259.3" y2="91.22" xlink:href="#Áåçûìÿííûé_ãðàäèåíò_141"/><linearGradient id="Áåçûìÿííûé_ãðàäèåíò_141-6" x1="247.6" y1="87.33" x2="253.24" y2="87.33" xlink:href="#Áåçûìÿííûé_ãðàäèåíò_141"/><linearGradient id="Áåçûìÿííûé_ãðàäèåíò_89" x1="289.26" y1="101.03" x2="466.32" y2="101.03" gradientUnits="userSpaceOnUse"><stop offset="0" stop-color="#9d68c2"/><stop offset="1" stop-color="#aec2ff"/></linearGradient><linearGradient id="Áåçûìÿííûé_ãðàäèåíò_85" x1="322.52" y1="162.86" x2="322.52" y2="109.45" gradientUnits="userSpaceOnUse"><stop offset="0" stop-color="#ccedff"/><stop offset="1" stop-color="#9d68c2"/></linearGradient><linearGradient id="Áåçûìÿííûé_ãðàäèåíò_85-2" x1="413.58" y1="136.82" x2="413.58" y2="113.3" xlink:href="#Áåçûìÿííûé_ãðàäèåíò_85"/><linearGradient id="Áåçûìÿííûé_ãðàäèåíò_85-3" x1="441.33" y1="136.82" x2="441.33" y2="113.3" xlink:href="#Áåçûìÿííûé_ãðàäèåíò_85"/><linearGradient id="Áåçûìÿííûé_ãðàäèåíò_85-4" x1="385.36" y1="136.82" x2="385.36" y2="113.3" xlink:href="#Áåçûìÿííûé_ãðàäèåíò_85"/><linearGradient id="Áåçûìÿííûé_ãðàäèåíò_65" x1="132.37" y1="79.02" x2="132.37" y2="54.4" gradientUnits="userSpaceOnUse"><stop offset="0" stop-color="#d93de3"/><stop offset="1" stop-color="#ff6dba"/></linearGradient><linearGradient id="Áåçûìÿííûé_ãðàäèåíò_14" x1="147.42" y1="79.02" x2="147.42" y2="54.4" gradientUnits="userSpaceOnUse"><stop offset="0" stop-color="#a242ea"/><stop offset="1" stop-color="#fe117e"/></linearGradient><linearGradient id="Áåçûìÿííûé_ãðàäèåíò_115" x1="130.86" y1="343.45" x2="144.17" y2="237.44" gradientUnits="userSpaceOnUse"><stop offset="0" stop-color="#067eff"/><stop offset="1" stop-color="#3e37a0"/></linearGradient><linearGradient id="Áåçûìÿííûé_ãðàäèåíò_302" x1="441.71" y1="81.39" x2="441.71" y2="72.45" gradientUnits="userSpaceOnUse"><stop offset="0" stop-color="#459fff"/><stop offset="1" stop-color="#a96dff"/></linearGradient><linearGradient id="Áåçûìÿííûé_ãðàäèåíò_302-2" x1="21.72" y1="186.12" x2="21.72" y2="175" xlink:href="#Áåçûìÿííûé_ãðàäèåíò_302"/><linearGradient id="Áåçûìÿííûé_ãðàäèåíò_322" x1="452.08" y1="76.35" x2="452.08" y2="67.41" gradientUnits="userSpaceOnUse"><stop offset="0" stop-color="#b31a8f"/><stop offset="1" stop-color="#fe117e"/></linearGradient><linearGradient id="Áåçûìÿííûé_ãðàäèåíò_322-2" x1="163.91" y1="105.76" x2="163.91" y2="99.44" xlink:href="#Áåçûìÿííûé_ãðàäèåíò_322"/><linearGradient id="Áåçûìÿííûé_ãðàäèåíò_25-2" x1="375.56" y1="245.2" x2="375.56" y2="238.88" xlink:href="#Áåçûìÿííûé_ãðàäèåíò_25"/><linearGradient id="Áåçûìÿííûé_ãðàäèåíò_25-3" x1="47.04" y1="276.37" x2="47.04" y2="270.72" xlink:href="#Áåçûìÿííûé_ãðàäèåíò_25"/><linearGradient id="Áåçûìÿííûé_ãðàäèåíò_97" x1="73.51" y1="250.85" x2="73.51" y2="204.19" gradientUnits="userSpaceOnUse"><stop offset="0" stop-color="#d906e3"/><stop offset="1" stop-color="#ff6df9"/></linearGradient><linearGradient id="Áåçûìÿííûé_ãðàäèåíò_97-2" x1="395.7" y1="316.9" x2="395.7" y2="258.53" xlink:href="#Áåçûìÿííûé_ãðàäèåíò_97"/><linearGradient id="Áåçûìÿííûé_ãðàäèåíò_206" x1="338.21" y1="260.3" x2="333.24" y2="217.61" gradientTransform="matrix(0.97, 0.26, -0.26, 0.97, 61.06, -55.02)" gradientUnits="userSpaceOnUse"><stop offset="0" stop-color="#1852a0"/><stop offset="1" stop-color="#067ed3"/></linearGradient><linearGradient id="Áåçûìÿííûé_ãðàäèåíò_206-2" x1="333.39" y1="260.46" x2="333.39" y2="216.72" xlink:href="#Áåçûìÿííûé_ãðàäèåíò_206"/><linearGradient id="Áåçûìÿííûé_ãðàäèåíò_107" x1="295.65" y1="279.3" x2="292.43" y2="251.68" gradientTransform="matrix(0.94, 0.33, -0.52, 1.49, 176.18, -231.1)" gradientUnits="userSpaceOnUse"><stop offset="0" stop-color="#188dc1"/><stop offset="1" stop-color="#06bfe7"/></linearGradient><linearGradient id="Áåçûìÿííûé_ãðàäèåíò_107-2" x1="347.05" y1="51.13" x2="358.39" y2="9.05" gradientTransform="matrix(1, 0, 0, 1, 0, 0)" xlink:href="#Áåçûìÿííûé_ãðàäèåíò_107"/><linearGradient id="Áåçûìÿííûé_ãðàäèåíò_206-3" x1="327.58" y1="46.28" x2="336.03" y2="14.9" gradientTransform="matrix(1, 0, 0, 1, 0, 0)" xlink:href="#Áåçûìÿííûé_ãðàäèåíò_206"/><linearGradient id="Áåçûìÿííûé_ãðàäèåíò_107-3" x1="184.46" y1="128.65" x2="192.19" y2="99.96" gradientTransform="matrix(-1, 0, 0, 1, 203.9, -5.04)" xlink:href="#Áåçûìÿííûé_ãðàäèåíò_107"/><linearGradient id="Áåçûìÿííûé_ãðàäèåíò_206-4" x1="171.18" y1="125.34" x2="176.94" y2="103.95" gradientTransform="matrix(-1, 0, 0, 1, 203.9, -5.04)" xlink:href="#Áåçûìÿííûé_ãðàäèåíò_206"/></defs><title>19362653 [Convertido]</title><g class="cls-1"><g id="illustration"><path class="cls-2" d="M85.67,164.18q0-.37.36-.36l6.71.2a4.9,4.9,0,0,1,1.69.31,2.77,2.77,0,0,1,1.1.74,2.84,2.84,0,0,1,.6,1.14,5.23,5.23,0,0,1,.15,1.47l-.06,1.85A4.75,4.75,0,0,1,96,171a2.73,2.73,0,0,1-.66,1.1,2.84,2.84,0,0,1-1.15.68,5.12,5.12,0,0,1-1.7.2l-3.61-.11-.75-2.12H88L88,172.83l-2.54-.08ZM88,170.51l4.28.13a1.42,1.42,0,0,0,1-.29,1.65,1.65,0,0,0,.34-1.12l0-1.5a1.59,1.59,0,0,0-.27-1.15,1.51,1.51,0,0,0-1-.33l-4.11-.12a.15.15,0,0,0-.13.05.2.2,0,0,0-.06.13Z" transform="translate(-2.76 -5.04)"/><path class="cls-2" d="M99.91,168h-.09l-.08,2.68c0,.12.05.18.17.18l7.54.23-.07,2.32-9.89-.3c-.24,0-.35-.13-.34-.38l.25-8.21a.31.31,0,0,1,.36-.35l9.61.29a.32.32,0,0,1,.36.38l-.07,2.32-2.38.8h-.09l0-1.19c0-.09,0-.14-.12-.14l-5.07-.16a.14.14,0,0,0-.13.05.56.56,0,0,0,0,.12l0,1.12,4.18.12-.06,1.82-3.5-.1Z" transform="translate(-2.76 -5.04)"/><path class="cls-2" d="M116.67,167.85h-.09l0-1a.13.13,0,0,0-.15-.15l-4.71-.14a.43.43,0,0,0-.36.1.42.42,0,0,0-.11.31v.22c0,.18,0,.29.08.34a.66.66,0,0,0,.33.12l5.52.94a3.5,3.5,0,0,1,.89.26,1.65,1.65,0,0,1,.59.42,1.35,1.35,0,0,1,.32.63,3.37,3.37,0,0,1,.07.88l0,.71a3.11,3.11,0,0,1-.17,1,1.68,1.68,0,0,1-.46.7,2,2,0,0,1-.83.41,4.17,4.17,0,0,1-1.24.11l-8-.24.07-2.32,7.14.22a.56.56,0,0,0,.42-.11.59.59,0,0,0,.12-.41v-.24a.54.54,0,0,0-.07-.33.5.5,0,0,0-.31-.13l-5.34-.84a4.06,4.06,0,0,1-.92-.25,1.72,1.72,0,0,1-.62-.41,1.46,1.46,0,0,1-.34-.61,3.11,3.11,0,0,1-.08-.85l0-.63a2.08,2.08,0,0,1,.56-1.49,2.36,2.36,0,0,1,1.74-.48l7.94.24c.26,0,.38.14.37.41l0,1.84Z" transform="translate(-2.76 -5.04)"/><path class="cls-2" d="M120,173.8l.28-8.94,2.53.08-.27,8.94Z" transform="translate(-2.76 -5.04)"/><path class="cls-2" d="M132,170.33c0-.13,0-.27,0-.41s0-.27,0-.38v-.11l2.51.08-.13,4.38c0,.23-.12.34-.32.34l-6.73-.21a5.06,5.06,0,0,1-1.69-.3,2.8,2.8,0,0,1-1.11-.75,2.61,2.61,0,0,1-.59-1.13,5,5,0,0,1-.15-1.48l.05-1.84a5.37,5.37,0,0,1,.24-1.46,2.89,2.89,0,0,1,.66-1.1,2.8,2.8,0,0,1,1.15-.68,5.18,5.18,0,0,1,1.71-.2l6.69.2a.33.33,0,0,1,.35.38l-.06,1.93-2.37.79H132l0-.86c0-.09,0-.13-.1-.13l-4.28-.13a2.32,2.32,0,0,0-.62.05.85.85,0,0,0-.42.22,1.06,1.06,0,0,0-.25.43,3.12,3.12,0,0,0-.09.68l-.05,1.58a1.71,1.71,0,0,0,.27,1.14,1.42,1.42,0,0,0,1,.35l4.24.13c.09,0,.13-.05.14-.15Z" transform="translate(-2.76 -5.04)"/><path class="cls-2" d="M139.78,165.45a.75.75,0,0,1,.4.1.81.81,0,0,1,.2.28l3.2,6.52a.26.26,0,0,0,.23.16h.13a.17.17,0,0,0,.2-.19l.21-6.73,2.3.07-.27,8.59a.3.3,0,0,1-.35.34l-3.64-.11a.74.74,0,0,1-.38-.08.64.64,0,0,1-.23-.29l-3.32-6.52a.26.26,0,0,0-.23-.16h-.12c-.13,0-.2.06-.2.19l-.21,6.72-2.3-.07.26-8.58c0-.24.13-.36.36-.35Z" transform="translate(-2.76 -5.04)"/><circle class="cls-3" cx="206.51" cy="163.61" r="155.02" transform="translate(-57.96 188.9) rotate(-45)"/><path class="cls-4" d="M92.56,153.69A23.77,23.77,0,0,0,82,144.43l-2.35,1.09L85,155.13a10.33,10.33,0,0,1-3.24,5.72v0a10.31,10.31,0,0,1-6.46-1.18l-4-10.23-2.35,1.1a23.85,23.85,0,0,0,.33,14s1,2.32,1.18,2.52c.93,1.08,3.36,2.34,8,2L94.69,200a8.47,8.47,0,1,0,8.76-4.09L90.14,163.7c3.17-3.34,3.84-6,3.6-7.49A27.08,27.08,0,0,0,92.56,153.69ZM105.89,207l-4.29,2-3.89-2.72.41-4.72,4.3-2,3.88,2.71Z" transform="translate(-2.76 -5.04)"/><path class="cls-5" d="M93.74,156.21a23.88,23.88,0,0,0-10.56-9.27L80.83,148l5.3,9.61a10.33,10.33,0,0,1-3.24,5.72v0a10.31,10.31,0,0,1-6.47-1.19l-4-10.22L70.09,153a23.79,23.79,0,0,0,.34,14s3.66,4.91,9.23,4.57l16.2,30.91a8.48,8.48,0,1,0,8.76-4.09l-13.3-32.25C95.15,162.17,93.74,156.21,93.74,156.21Zm13.32,53.31-4.29,2-3.88-2.71.41-4.72,4.29-2,3.88,2.72Z" transform="translate(-2.76 -5.04)"/><rect class="cls-6" x="69.38" y="149.84" width="2.59" height="2.78" transform="translate(-60.13 39.09) rotate(-25.04)"/><rect class="cls-6" x="80.12" y="144.85" width="2.59" height="2.78" transform="translate(-57.01 43.17) rotate(-25.04)"/><rect class="cls-6" x="101.96" y="207.87" width="4.74" height="2.78" transform="translate(-81.53 58.79) rotate(-25.04)"/><path class="cls-7" d="M83.13,173.94l13.09,25.15a6.4,6.4,0,0,0,5.28-2.47L90.84,170.34A10,10,0,0,0,83.13,173.94Zm17.36,22.89a7.23,7.23,0,0,1-1.7,1.11,6.44,6.44,0,0,1-1.8.54L83.88,173.84A13.45,13.45,0,0,1,87,171.78a11,11,0,0,1,3.24-1Z" transform="translate(-2.76 -5.04)"/><path class="cls-6" d="M100.49,196.83l1-.21a5.66,5.66,0,0,1-5.28,2.47l.77-.61A7.17,7.17,0,0,0,100.49,196.83Z" transform="translate(-2.76 -5.04)"/><path class="cls-8" d="M83.13,173.94l.75-.1a12.21,12.21,0,0,1,6.39-3l.57-.48a9.83,9.83,0,0,0-7.71,3.6Z" transform="translate(-2.76 -5.04)"/><path class="cls-9" d="M79.66,171.65a28.93,28.93,0,0,0,11.66-5.43l1.7,4.12s-1.93-1.91-6.17-.18c-4.95,2-4.68,6-4.68,6Z" transform="translate(-2.76 -5.04)"/><path class="cls-10" d="M93,170.34a5.15,5.15,0,0,0-2.59-.89L103.1,200l1.52-1.57Z" transform="translate(-2.76 -5.04)"/><path class="cls-11" d="M93,170.34s-1.33,4.09,2.49,6Z" transform="translate(-2.76 -5.04)"/><path class="cls-12" d="M283.7,368.08h-47c-4.92-27.32-16.36-62.87-16.36-62.87-2.78-1.65-8.21.38-8.21.38l-17.18,62.49H152c-2.28-38.56,18.82-82.33,18.82-82.33h0a4.73,4.73,0,0,1-.56-2.39,5.68,5.68,0,0,1,1.6-1.86c1.16-1.06,2.54-2.12,2.54-2.12l80.11-.5s.81.41,1.84,1h0c1.75,1.06,4.12,2.7,4.12,3.9a5.47,5.47,0,0,1-.81,3l0,.05C276.8,319.23,283.7,368.08,283.7,368.08Z" transform="translate(-2.76 -5.04)"/><ellipse class="cls-13" cx="174.32" cy="336" rx="46.31" ry="17.92" transform="translate(-195.02 425.28) rotate(-77.01)"/><ellipse class="cls-14" cx="257.52" cy="335.55" rx="17.92" ry="46.31" transform="translate(-83.75 76.89) rotate(-15.65)"/><path class="cls-15" d="M189.38,368.12l-.49-.08c5.47-32.2,19.34-59.2,19.48-59.47l.06-.08L212,305.4l.33.38-3.5,3.06C208.17,310.06,194.74,336.59,189.38,368.12Z" transform="translate(-2.76 -5.04)"/><path class="cls-16" d="M243.07,368.12c-5.35-31.55-19.15-58.34-19.77-59.53l-3.13-2.81.33-.38,3.22,2.91c.14.27,14.38,27.53,19.85,59.73Z" transform="translate(-2.76 -5.04)"/><path class="cls-17" d="M260.47,283.8a5.47,5.47,0,0,1-.81,3l0,.05c-16.68,3.77-29.37,19.34-29.37,19.34,9.09,17.44,24.25,61.93,24.25,61.93H236.69c-4.92-27.32-16.36-62.87-16.36-62.87-2.78-1.65-8.21.38-8.21.38l-17.18,62.49H183.82c4-26.18,15.73-58.14,15.73-58.14-11.55-13.45-28.73-24.19-28.73-24.19h0l-2-1.28,1.48-1.11c7.43,7.13,31.39,16.44,32.13,16.73l-30.53-18.59c1.16-1.06,2.54-2.12,2.54-2.12l80.11-.5s.81.41,1.84,1l-21.88,12Z" transform="translate(-2.76 -5.04)"/><polygon class="cls-18" points="217.57 300.17 226.93 294.1 224.7 300.17 223.07 318.43 217.57 300.17"/><polygon class="cls-19" points="209.36 300.55 199.62 295.04 178.77 285.65 205.32 303.19 206.91 309.49 209.36 300.55"/><path class="cls-20" d="M238.92,117.73c.06.43.11.66.11.66a57.27,57.27,0,0,1-1.66,5.66,46,46,0,0,1-6.23,12.12,23.85,23.85,0,0,1-2.72,3.18c-14.59-4.58-21.78-18.85-24.54-25.95a.36.36,0,0,1,0-.11c-.53-1.34-.88-2.42-1.1-3.12h0c-.17-.56-.25-.87-.25-.87l.18-.37,0,0c.24-.5.48-1,.7-1.5a71.16,71.16,0,0,0,4-11.17c.71-2.62,1.09-4.64,1.27-5.71.09-.55.13-.85.13-.85l6.8,3.59L239,105.63a38.55,38.55,0,0,0-.5,5.94c0,1.25,0,2.37.09,3.32.07,1.16.19,2.08.28,2.68h0A.68.68,0,0,0,238.92,117.73Z" transform="translate(-2.76 -5.04)"/><path class="cls-21" d="M232.42,140.92a20.1,20.1,0,0,1-4.84,3.54l-.12.07-.14-.08h0c-.51-.31-2.25-1.38-4.59-3.14-6.12-4.61-16.34-13.93-19.26-26.49l0,0a31.14,31.14,0,0,1-.7-4.59h0c0-.41-.06-.82-.07-1.24a64.43,64.43,0,0,0,5.55,9.92c4.14,6.06,10.35,12.67,17.77,12.71,6.42,0,9.71-4.35,11.38-8.4a22.92,22.92,0,0,0,1.35-4.6,0,0,0,0,0,0,0c.07-.36.12-.68.17-1h0c0-.14,0-.26,0-.37.06-.45.08-.71.08-.71S241.49,131.85,232.42,140.92Z" transform="translate(-2.76 -5.04)"/><path class="cls-22" d="M232.42,140.92a20.1,20.1,0,0,1-4.84,3.54h-.27c-.51-.31-2.25-1.38-4.59-3.14-6.12-4.61-16.34-13.93-19.26-26.49l0,0a31.14,31.14,0,0,1-.7-4.59h0c0-.41-.06-.82-.07-1.24a64.43,64.43,0,0,0,5.55,9.92s4,11.1,12.78,16.6c4.38,2.75,7.7,2.35,10.14.73a15.09,15.09,0,0,0,5-6.54,15.38,15.38,0,0,0,1.28-5.58q0-.49,0-.9a22.92,22.92,0,0,0,1.35-4.6,0,0,0,0,0,0,0c.07-.36.12-.68.17-1h0c0-.14,0-.26,0-.37.06-.45.08-.71.08-.71S241.49,131.85,232.42,140.92Z" transform="translate(-2.76 -5.04)"/><path class="cls-23" d="M288.58,231.61l-.16.08c-.82.1-3.37-.46-6.71-3.35h0s0,0,0,0l0,0c-2.8-2.45-6.16-6.54-9.51-13.24-6.7-13.39-8.62-22.33-8.93-23.89l0-.24-3.91,6.2c-2.65,8-7.67,40.95-7.58,42.37s4.45,8.34,4.36,9.19v0c-.12.86-2.08,2.75-2.64,4.81-.38,1.37,2.28,5.69,4.15,8.92h0a13.13,13.13,0,0,1,1.72,3.58c0,1.51-4.74,8.9-4.74,8.9v4l-.07.07-.22.2-.18.15c-1.8,1.42-9.43,6.07-33.27,7.35-28.25,1.51-47.07-7.58-47.07-7.58l1.42-3.89s-1.32-1.13-1.42-1.7,1-1.9,1-1.9-2.84-1.51-2.84-3.41,5.69-7.76,5.5-12.79-4.55-9.47-5.12-12.31,7.39-9.85,7.39-9.85c-6.82-21.6-8.15-50.59-8.15-50.59l-1.32-1.52s-8.15,18.57-15.54,27.66c-.88,1.08-1.81,2.15-2.77,3.18a81,81,0,0,1-6.36,6.15c-5.12,4.46-9.77,7.39-11,7.16-1.9-.38-9.48-15.35-9.13-30.7.16-7.3,4.56-15.47,9.13-22,.49-.7,1-1.39,1.48-2.06a104.89,104.89,0,0,1,7.84-9.45c.58-.62.91-1,.91-1s-1-3.35-1.75-6.26a1.6,1.6,0,0,0-.05-.21.36.36,0,0,0,0-.1.31.31,0,0,0,0-.07c-.42-1.79-.68-3.34-.44-3.72.63-1,4.3-2.15,4.93-2.9s3.28-13.52,5.3-14.91,5.35-2.3,16.72-6.77l1.73-.68c12.75-5,25.26-11.18,25.26-11.18l4.8-5.9h2.14l-.7,1.5,0,0c.34,1.52.73,3,1.17,4.37a.36.36,0,0,0,0,.11c6.6,20.82,23.58,27.53,23.58,27.53,11.8-8.71,11.57-22.54,11.57-22.54v-1.9l2.21.66,1.51,3.6s2.56,4,12.7,8.44A60.32,60.32,0,0,1,261,132c9.28,5.27,19.6,13.42,20.39,15.15a5.61,5.61,0,0,1,.27.86h0c1.09,4.28,3.33,20.31,5.41,26a13.1,13.1,0,0,0,4.86,6.56h0a7.61,7.61,0,0,0,1.94,1q.24,1.32.45,2.61C298.71,211.7,290.44,230.31,288.58,231.61Z" transform="translate(-2.76 -5.04)"/><path class="cls-24" d="M179.75,179.85l-8.24,2.77-1.32-1.52s-8.15,18.57-15.54,27.66c-.88,1.08-1.81,2.15-2.77,3.18a81,81,0,0,1-6.36,6.15L139.24,191l-3.19-20.55a104.89,104.89,0,0,1,7.84-9.45c.58-.62.91-1,.91-1s-1-3.35-1.75-6.26a1.6,1.6,0,0,0-.05-.21.36.36,0,0,0,0-.1.31.31,0,0,0,0-.07c-.42-1.79-.68-3.34-.44-3.72.63-1,4.3-2.15,4.93-2.9s3.28-13.52,5.3-14.91c0,0-1.32,12.25,5.69,27.79l3.41,4.8,10,8S175.62,177.54,179.75,179.85Z" transform="translate(-2.76 -5.04)"/><path class="cls-25" d="M155.91,202c-1.77,13.13-21.34,23.24-21.34,23.24-4.36,0-9.23-7.58-13.65-16.93s-4.69-36.21-4.92-37.87-2.7-5-2.85-6.4,4-4.36,4-4.36l0-.07,0-.07c-.43-.92-2.85-6.11-2.68-7.06s4.82-3.31,4.82-3.31l.29,5.11s10.78-2,14.43-10.39l.64-2.56,1.8,1.2v11s.37,1.71.94,1.71,4.77-2.1,5.65-1.81,1.76,6.17,2.94,6.92,4.3,2.94,4.77,4a19,19,0,0,1,.25,4.15,42.4,42.4,0,0,0,.41,6.94C152,178.35,157.68,188.87,155.91,202Z" transform="translate(-2.76 -5.04)"/><path class="cls-26" d="M334.9,190.76c-.88,1.39-5.3,4.3-6.44,5.44s0,4.87,0,4.87a153.35,153.35,0,0,1-39.88,30.54l-.16.08c-11.66-7.84-10.66-20.75-6.79-31.63A82.1,82.1,0,0,1,292,180.68h0a24.41,24.41,0,0,1,5.92-1.64,3.59,3.59,0,0,1,2.19.68c1.42.88,2.62,2.27,3.78,1.69,1.71-.86,5.53-9.89,8.12-10.14,1.81-.17,4.32,1.67,6,2.72.73.46,1.3.77,1.58.69.95-.25,4.17-4.11,4.43-4.21s1.72,1,1.72,1l-1,1.28a35,35,0,0,0,6.76,15.22l3.47-5.08S335.79,189.37,334.9,190.76Z" transform="translate(-2.76 -5.04)"/><path class="cls-27" d="M239,117.34c0,.13,0,.26-.05.39a7.73,7.73,0,0,1-.19.8,0,0,0,0,1,0,0c-1.19,4.41-6,8.92-12.07,6.75C220,122.93,207.4,96.2,207.4,96.2l1.27-5.71,30,24.4.33,2.31Z" transform="translate(-2.76 -5.04)"/><path class="cls-28" d="M139.24,112.45s-1.83-10.11-1-17.56A80.83,80.83,0,0,0,138,79a4,4,0,0,0-3.13,0c-1.33.75-4.43,8.46-3,14.65s.32,21,.32,21h-2.08l-4.55-6.25-2.21-.63s-12.73,12-12.54,19.13l1.66,6.35,15.68-.54L138.36,121Z" transform="translate(-2.76 -5.04)"/><path class="cls-29" d="M123.33,107.78a81.86,81.86,0,0,0,2.11,14.78,3.54,3.54,0,0,1-3.57,3l-.8-.9s-.57,3.17-3.46,3.41l-2.75-2.75.71,2.28a3.89,3.89,0,0,1-3.6,2.32s-4.35-3.41-4.64-7.87l4.31-3.64v-2.8l5.12-3.6.09-2A12,12,0,0,1,123.33,107.78Z" transform="translate(-2.76 -5.04)"/><path class="cls-30" d="M138.42,92.75a7.17,7.17,0,0,1-1.86,2.71,16,16,0,0,1-4.25,1.34l-.14,17.86h-2.08l-4.55-6.25s2.3,3.57,2.45,6.25l-1.8.88-1.57-5.35-.74,3.85.74,4.8a12.57,12.57,0,0,1,7.57-2.42l.74,1.34s-8.83,7.31-10.87,11.62c0,0,4.36-5.55,14.31-11.66l.95-2.93,1.25-7S137.38,97.67,138.42,92.75Z" transform="translate(-2.76 -5.04)"/><path class="cls-31" d="M145.81,123.88c-.82,2.46-9.41,12.69-10.36,14.91a30,30,0,0,0-1.52,5.11c-4.22,9.13-14.43,10.39-14.43,10.39l-.47-8.24s-5.49-3.16-6.42-4.89v0l-.11-.29a68.8,68.8,0,0,1,0-7.58l9.61-3.89c4.17-5.4,14.31-11.65,14.31-11.65l.47-2.83c-7.28-3.58-6.06-14.41-4.83-15.74a5.4,5.4,0,0,1,3.5-1.32s2.66,8.71,4.36,12.79S146.63,121.42,145.81,123.88Z" transform="translate(-2.76 -5.04)"/><path class="cls-32" d="M116.85,110s1.08,9.94,4.22,14.68A23.13,23.13,0,0,1,116.76,112Z" transform="translate(-2.76 -5.04)"/><path class="cls-32" d="M111.64,115.59s1,8,6,12.46c0,0-4.36-2.18-6-9.66Z" transform="translate(-2.76 -5.04)"/><path class="cls-33" d="M136.79,136.67S126,147.19,119,146.05l.47,8.24a18.28,18.28,0,0,0,15.07-12.95A30.87,30.87,0,0,1,136.79,136.67Z" transform="translate(-2.76 -5.04)"/><path class="cls-34" d="M365.82,151s-9.95,18.19-21.6,23.78h-4l-9.19,13.93s-5.94-3.73-6.38-16a11.17,11.17,0,0,0,2.59-4.62s-3.28-2.58-4.17-4.47-1.2-7.58-1.83-9.92-6-7.2-7.2-7.83-6.63-1-6.63-1-.76-2,0-2.9,9.22-4.24,13.83-1.08a20.77,20.77,0,0,0,.82,3.67c.51,1.26,4.55,5.74,5.18,5.74s3.35-2.27,4.55-4A178.56,178.56,0,0,0,340.55,127a.5.5,0,0,1,0-.13c0-.07.05-.14.06-.2a.93.93,0,0,0,0-.13s0,0,0,0c1.14-3.85,7.77-11.24,11.31-13.26a2.09,2.09,0,0,1,2.33,1.51s-2.84,8.09-5.81,12.89c-.5.81-1,1.76-1.6,2.78h0c-2.53,4.65-5.38,10.74-5.79,11.63l-.05.11,1.58.81,4.27-4.05,4.38-4.15,10.05,10.61-1,1.26-3.14,4,1.59.29,3.7-4.09Z" transform="translate(-2.76 -5.04)"/><path class="cls-35" d="M363.5,154.84l-3.18,4.67s-17.46-13.46-21.25-14.6-5.18-.38-5.18-.38l-3.91,5s7.2,6.38,7.83,15c0,0-2.4-10.86-10.55-14.15.63,0,3.35-2.27,4.55-4A178.56,178.56,0,0,0,340.55,127a5,5,0,0,0,.16,3.41c.86,1.59,5.92.09,6.22,0h0L341.14,142l-.05.11,1.58.81,4.27-4.05-2.14,5,15.58,2.75-3.14,4,1.59.29Z" transform="translate(-2.76 -5.04)"/><path class="cls-36" d="M351.33,134.74s3-.44,5,3.48l-.45,1.26s3,.58,5.82,5.37a16.19,16.19,0,0,1-8.78,6.69s-2.91-.82-3.41-3.28l.56-1.58-2.27,1.71s-2.72.82-3.92-3.22Z" transform="translate(-2.76 -5.04)"/><path class="cls-37" d="M366.74,149.71a4.69,4.69,0,0,0-2.47-4.8l-6,6.63a3.11,3.11,0,0,0,2.78,2.59S365.16,152.74,366.74,149.71Z" transform="translate(-2.76 -5.04)"/><path class="cls-38" d="M323.09,163.61a44.56,44.56,0,0,0,17.15,11.14l-4.39,6.66-9.17-11.64.58-1.69S323.6,165.32,323.09,163.61Z" transform="translate(-2.76 -5.04)"/><path class="cls-32" d="M355.87,139.48s-2.9,4.8-5.81,7.2l-.56,1.58s5.63-3.81,7.71-8.2A3.66,3.66,0,0,0,355.87,139.48Z" transform="translate(-2.76 -5.04)"/><path class="cls-39" d="M334.9,190.76c-.88,1.39-5.3,4.3-6.44,5.44s0,4.87,0,4.87a153.35,153.35,0,0,1-39.88,30.54l-.16.08c-1.52.19-8.91-1.89-16.3-16.67-6.7-13.39-8.62-22.33-8.93-23.89l0-.24,1.63-2.21,2.42-27.28,1.7,5.49c6.44-7.77,12.51-19.7,12.51-19.7l.27.86h0c1.09,4.28,3.33,20.31,5.41,26a13.1,13.1,0,0,0,4.86,6.56v0h0c-5.93,5.41-8.87,13.19-10.32,19.38a53.68,53.68,0,0,0-1.42,10,67.43,67.43,0,0,1,6.82-17,36.5,36.5,0,0,1,7.33-8.85,58.85,58.85,0,0,1,5.72-4.58c1.42.88,2.62,2.27,3.78,1.69-7.8,11.71-7.61,34.89-.28,30.47s9-13.8,9-13.8c-1.73-11.43-1.21-24.32.18-26.77,1.68.05,6.51,3.45,6.79,3.37a39.6,39.6,0,0,0,5.88,22.43l4.17-6.45A40,40,0,0,1,324,170.45c.25-.11,1.72,1,1.72,1l-1,1.28a35,35,0,0,0,6.76,15.22l3.47-5.08S335.79,189.37,334.9,190.76Z" transform="translate(-2.76 -5.04)"/><path class="cls-40" d="M254.5,274.89v4l-.07.07-.22.2-.18.15c-1.8,1.42-9.43,6.07-33.27,7.35-28.25,1.51-47.07-7.58-47.07-7.58l1.42-3.89s-1.32-1.13-1.42-1.7,1-1.9,1-1.9-2.84-1.51-2.84-3.41c0-1.71,4.64-6.66,5.39-11.31a6.76,6.76,0,0,0,.11-1.48c-.19-5-4.51-9.43-5.11-12.27v0c-.57-2.84,7.39-9.85,7.39-9.85-6.82-21.6-8.15-50.59-8.15-50.59l-1.32-1.52s-8.15,18.57-15.54,27.66-18.19,16.87-20.08,16.49c-4.36,0-9.23-7.58-13.65-16.93s-4.69-36.21-4.92-37.87-2.7-5-2.85-6.4c4.74,8.15,12.29,5.75,12.29,5.75-5.47.12-8.31-10.11-8.31-10.11l0-.07,0-.07-2.67-7.05c.3.34,6.55,7.33,12.59,3,6.19-4.42,9.38-13,9.38-13v11s.37,1.71.94,1.71a134.15,134.15,0,0,1-2.74,17.29c-2.81,13.13-6.66,25.81-6.66,25.81s10.44-5.68,14.11-20.08A60.74,60.74,0,0,0,143.89,161a43.22,43.22,0,0,0-.84-7.21,1.6,1.6,0,0,0-.05-.21.36.36,0,0,0,0-.1.43.43,0,0,0,0-.05l1,2.14,1.92,4.76c2.23,18.48-2.37,46.33-2.37,46.33,6.7-8.34,8.09-26.78,7.8-31.26-.13-2.14-.3-4.78-.41-6.94-.15-2.36-.25-4.15-.25-4.15l13.71,8.18-2.53-8,10,8s9,10.8,18.19,12.06,43.07.51,43.07.51-29.43,1.89-38,4.42-10.23,5.43-10.23,5.43c6.21,31.59,40.58,42.24,41.65,42.56-31.18-4.68-45.69-31.19-45.69-31.19s-.51,14.91,1.89,20.59,16.55,19.58,34.74,22.48a41.89,41.89,0,0,0,4.53.46c15.34.72,28-7.12,29.34-8l.11-.07,0,0c-.49.75-6.78,9.59-32.18,10.56-1.54.06-3,.05-4.5,0h0c-23.54-1-35.53-16.67-35.53-16.67s-8.71,4.68-3.15,11.62l.18.22c1.64,1.89,5.25,4.2,9.52,6.58l.35.2c5.16,2.85,11.21,5.79,15.89,8.22l.07,0a59.23,59.23,0,0,1,6.52,3.73h0c1.32,1,1.59,1.58.3,1.73-6.57.76-31.45-4.67-32.46-3.16s1.23,5.43,1.23,5.43c22.84,11.32,71.71,5.74,73.25,5.57-40.9,10.47-74.36-2.79-74.36-2.79l1.11,3.92a146.33,146.33,0,0,0,39.69,6.82c21.48.5,34.87-5,34.87-5Z" transform="translate(-2.76 -5.04)"/><path class="cls-41" d="M237.77,185s16.27.88,27,3.72l-5.55,8.41A73.71,73.71,0,0,0,237.77,185Z" transform="translate(-2.76 -5.04)"/><path class="cls-42" d="M253,229.79s-10.15,8.47-20.13,12.39a67.51,67.51,0,0,1-19.58,4.29s5.74,1.71,19.86-.57S252.06,236,252.06,236Z" transform="translate(-2.76 -5.04)"/><path class="cls-43" d="M257.52,262.4h0c-18.78,4.85-42.62-2.11-42.42-3s6.53.38,21.21-2.56C250.54,254,255.7,249,256,248.67c-.12.86-2.08,2.75-2.64,4.81C253,254.85,255.65,259.17,257.52,262.4Z" transform="translate(-2.76 -5.04)"/><path class="cls-44" d="M206.51,187.5c-16,1.63-20.36,6.1-20.36,6.1-4.51.57-14.64-11-14.64-11l-1.32-1.52s-8.15,18.57-15.54,27.66c-.88,1.08-1.81,2.15-2.77,3.18l1.05-2.36s1.72-.82,2.22-9.85-3.79-22.48-3.82-24.31-.66-11.09-.66-11.09l13.71,8.18-2.53-8,10,8s3.91,5.88,13.78,10.78C194.92,187.92,205.36,187.55,206.51,187.5Z" transform="translate(-2.76 -5.04)"/><path class="cls-45" d="M170.19,181.1l9.56-1.25a71.76,71.76,0,0,0,11.49,5.65l-6.4,9.43s2.54,13.44,9.82,21c0,0-19.32-10.73-22-19.75Z" transform="translate(-2.76 -5.04)"/><path class="cls-46" d="M114.4,152.5l2.73,7.19s2.79,9.7,8.31,10.11,10.93-16.27,10.93-16.27v-11s-5.87,12.6-12.22,14S114.4,152.5,114.4,152.5Z" transform="translate(-2.76 -5.04)"/><path class="cls-47" d="M147.45,146.81s4.93,9.85,11,12.88c0,0-7.21-17.49-5.69-27.79C152.75,131.9,150.1,133.55,147.45,146.81Z" transform="translate(-2.76 -5.04)"/><path class="cls-48" d="M267.2,161.4l1.7,5.49,1.73,45.05a108.67,108.67,0,0,1-7.44-20.81l1.6-2.45S267.46,171.7,267.2,161.4Z" transform="translate(-2.76 -5.04)"/><path class="cls-49" d="M319.55,174.66s-1,22.13,8.45,24.05l.46,2.36S316.3,200.62,319.55,174.66Z" transform="translate(-2.76 -5.04)"/><path class="cls-50" d="M303.86,181.39s-.36.79-3.78-1.69c0,0-11.83,8.38-16.38,20.19,0,0,7.29-10.85,11.17-12s4.81,3.15,4.81,3.15S301.22,184.92,303.86,181.39Z" transform="translate(-2.76 -5.04)"/><path class="cls-51" d="M113.15,164.05s4.56,8.39,13.08,5.76c0,0-5.11,3.44-10.23.64C116,170.45,112.83,165,113.15,164.05Z" transform="translate(-2.76 -5.04)"/><path class="cls-52" d="M143,153.43s6.26,23.4-10.06,41a27.11,27.11,0,0,0,13-18A38.7,38.7,0,0,0,143,153.43Z" transform="translate(-2.76 -5.04)"/><path class="cls-53" d="M255.1,134.73s-.7,10.56-5.76,18.14-15.11,12.7-15.11,12.7,12.6-4.65,18.38-11.18S255.1,134.73,255.1,134.73Z" transform="translate(-2.76 -5.04)"/><path class="cls-54" d="M190.65,118.84a66.6,66.6,0,0,0,2.85,17.83c2.84,9,27.51,24.73,27.51,24.73s-25.43-10.57-30.36-20.06S190.65,118.84,190.65,118.84Z" transform="translate(-2.76 -5.04)"/><path class="cls-55" d="M190.37,160.9v14.38s33.1-.27,70.23,2.19l.85-12.94A646.44,646.44,0,0,0,190.37,160.9Z" transform="translate(-2.76 -5.04)"/><path class="cls-56" d="M196.5,164.18q0-.37.36-.36l6.71.2a4.79,4.79,0,0,1,1.68.31,2.74,2.74,0,0,1,1.11.74,2.84,2.84,0,0,1,.6,1.14,5.63,5.63,0,0,1,.15,1.47l-.06,1.85a5.07,5.07,0,0,1-.24,1.46,2.73,2.73,0,0,1-.66,1.1,2.91,2.91,0,0,1-1.15.68,5.12,5.12,0,0,1-1.7.2l-3.62-.11-.74-2.12h-.1l-.06,2.09-2.54-.08Zm2.35,6.33,4.28.13a1.38,1.38,0,0,0,1-.29,1.6,1.6,0,0,0,.35-1.12l0-1.5a1.59,1.59,0,0,0-.27-1.15,1.51,1.51,0,0,0-1-.33l-4.11-.12a.15.15,0,0,0-.13.05.16.16,0,0,0-.06.13Z" transform="translate(-2.76 -5.04)"/><path class="cls-56" d="M210.74,168h-.09l-.08,2.68c0,.12.05.18.17.18l7.54.23-.07,2.32-9.89-.3c-.24,0-.35-.13-.34-.38l.24-8.21a.32.32,0,0,1,.37-.35l9.61.29c.25,0,.36.13.36.38l-.07,2.32-2.38.8H216l0-1.19c0-.09,0-.14-.12-.14l-5.07-.16a.14.14,0,0,0-.13.05.56.56,0,0,0,0,.12l0,1.12,4.18.12-.06,1.82-3.5-.1Z" transform="translate(-2.76 -5.04)"/><path class="cls-56" d="M227.5,167.85h-.09l0-1a.13.13,0,0,0-.15-.15l-4.72-.14a.42.42,0,0,0-.35.1.42.42,0,0,0-.11.31v.22c0,.18,0,.29.08.34a.66.66,0,0,0,.32.12l5.53.94a3.63,3.63,0,0,1,.89.26,1.65,1.65,0,0,1,.59.42,1.45,1.45,0,0,1,.32.63,3.87,3.87,0,0,1,.07.88l0,.71a3.11,3.11,0,0,1-.17,1,1.68,1.68,0,0,1-.46.7,2,2,0,0,1-.83.41,4.17,4.17,0,0,1-1.24.11l-8-.24.07-2.32,7.14.22a.56.56,0,0,0,.42-.11.59.59,0,0,0,.12-.41v-.24a.54.54,0,0,0-.07-.33.5.5,0,0,0-.31-.13l-5.34-.84a4.06,4.06,0,0,1-.92-.25,1.72,1.72,0,0,1-.62-.41,1.46,1.46,0,0,1-.34-.61,3.11,3.11,0,0,1-.08-.85l0-.63a2.08,2.08,0,0,1,.56-1.49,2.35,2.35,0,0,1,1.73-.48l7.95.24c.26,0,.38.14.37.41l-.05,1.84Z" transform="translate(-2.76 -5.04)"/><path class="cls-56" d="M230.86,173.8l.27-8.94,2.54.08-.28,8.94Z" transform="translate(-2.76 -5.04)"/><path class="cls-56" d="M242.79,170.33c0-.13,0-.27,0-.41s0-.27,0-.38v-.11l2.51.08-.14,4.38c0,.23-.11.34-.31.34l-6.73-.21a5.06,5.06,0,0,1-1.69-.3,2.8,2.8,0,0,1-1.11-.75,2.61,2.61,0,0,1-.59-1.13,5.34,5.34,0,0,1-.16-1.48l.06-1.84a5.37,5.37,0,0,1,.24-1.46,2.67,2.67,0,0,1,1.81-1.78,5.18,5.18,0,0,1,1.71-.2l6.69.2a.33.33,0,0,1,.35.38l-.06,1.93-2.37.79h-.1l0-.86c0-.09,0-.13-.1-.13l-4.28-.13a2.32,2.32,0,0,0-.62.05.85.85,0,0,0-.42.22,1.06,1.06,0,0,0-.25.43,3.12,3.12,0,0,0-.09.68l-.05,1.58a1.65,1.65,0,0,0,.27,1.14,1.42,1.42,0,0,0,1,.35l4.24.13c.09,0,.13-.05.13-.15Z" transform="translate(-2.76 -5.04)"/><path class="cls-56" d="M250.61,165.45a.75.75,0,0,1,.4.1.81.81,0,0,1,.2.28l3.2,6.52a.26.26,0,0,0,.23.16h.13a.17.17,0,0,0,.2-.19l.21-6.73,2.29.07-.26,8.59a.3.3,0,0,1-.35.34l-3.64-.11a.74.74,0,0,1-.38-.08.64.64,0,0,1-.23-.29l-3.32-6.52a.26.26,0,0,0-.23-.16h-.12a.18.18,0,0,0-.21.19l-.2,6.72-2.3-.07.26-8.58c0-.24.13-.36.36-.35Z" transform="translate(-2.76 -5.04)"/><path class="cls-57" d="M242.75,120.75c-.78,9.3-3.61,15.78-6.63,20.15-4.16,6-8.66,8-8.66,8a52,52,0,0,1-11.76-7.09,60,60,0,0,1-19.21-28.5c6,14.54,14.86,23.35,21.56,28.31a43.28,43.28,0,0,0,9.41,5.52v-4.65a30.9,30.9,0,0,1-3.1-1.36c-11.8-6-18-18.35-20.9-26.37l0,0a57,57,0,0,1-2.18-7.39h2.14l-.7,1.5,0,0c.34,1.52.73,3,1.17,4.37a.36.36,0,0,0,0,.11c6.6,20.82,23.58,27.53,23.58,27.53,11.8-8.71,11.57-22.54,11.57-22.54v-1.9l2.21.66Z" transform="translate(-2.76 -5.04)"/><path class="cls-58" d="M312.76,171.29s-3.21,10.48-.18,26.77c0,0,1.52-20.65,2.65-22.45s4.32-1,4.32-1A75.58,75.58,0,0,0,312.76,171.29Z" transform="translate(-2.76 -5.04)"/><path class="cls-59" d="M281.63,228.26c-2.8-2.45-6.16-6.54-9.51-13.24-6.7-13.39-8.62-22.33-8.93-23.89l1.59-2.45,2.13-20.6,2-1.19a84.28,84.28,0,0,0,12.51-19.7,5.61,5.61,0,0,1,.27.86h0c1.09,4.28,3.33,20.31,5.41,26a13.1,13.1,0,0,0,4.86,6.56S279.64,198.91,279,211.94C278.51,223.8,281.15,227.66,281.63,228.26Z" transform="translate(-2.76 -5.04)"/><path class="cls-60" d="M208.54,266.34s-22.19-3.64-31.25-9.48h0a6.76,6.76,0,0,0,.11-1.48c-.19-5-4.51-9.43-5.11-12.27.1.27.75,1.77,3.9,4.47a66.94,66.94,0,0,0,9.52,6.58l.35.2c6.4,3.78,11.91,6.34,15.89,8.22l.07,0c3.58,1.68,5.9,2.79,6.52,3.73Z" transform="translate(-2.76 -5.04)"/><path class="cls-61" d="M256,248.67c-.12.86-2.08,2.75-2.64,4.81,0,0-8.14,8.62-38.27,6,.2-.85,6.53.38,21.21-2.56C250.54,254,255.7,249,256,248.67Z" transform="translate(-2.76 -5.04)"/><path class="cls-62" d="M261,132l-19.26,6.24-5.64,2.62h-8.66l-3.1.25-1.64.12-4.67.37-2.35.19-23.1-8.36L188.47,132l-19-6.88,1.73-.68c12.75-5,25.26-11.18,25.26-11.18l4.8-5.9h2.14a71.16,71.16,0,0,0,4-11.17l1.27-5.71c.09-.55.13-.85.13-.85l6.8,3.59,22.93,18.34c0,1.25,0,2.37.09,3.32l.33,2.31c.06-.45.08-.71.08-.71l2.21.66,1.51,3.6s2.56,4,12.7,8.44A60.32,60.32,0,0,1,261,132Z" transform="translate(-2.76 -5.04)"/><path class="cls-63" d="M246.35,114.47a31.37,31.37,0,0,1-18.89-2.78c-9.91-4.8-18.24-19-18.75-22.48s3.79-12.76,3.79-20S209,49.67,214.9,43s33.22-7.7,42.07.89c0,0,2.74,6.88,2.74,10.77a28.33,28.33,0,0,1-.42,3.91c-.08.59-.19,1.22-.29,1.87-.79,4.71-1.88,10.46-1.37,13a12.64,12.64,0,0,0,.79,2.46h0c1.09,2.52,2.71,4.53,3,6.71C261.8,85.42,258,105.63,246.35,114.47Z" transform="translate(-2.76 -5.04)"/><path class="cls-64" d="M212.43,67.22S210,61.07,203.82,61c0,0-3.6,1.42-4.17,4.16,0,0,1.33,10,2.85,14.59s7.07,4,7.07,4A23.53,23.53,0,0,0,212.43,67.22Z" transform="translate(-2.76 -5.04)"/><path class="cls-65" d="M236.1,87.47A5.54,5.54,0,0,1,239,88c.89.66,4.11,3.79,8.18,4.64s6.81-2.62,7.68-2.8,1.82,1.05,1.82,1.05a3.45,3.45,0,0,0-2.5-2.06s-.86,3.27-6.76,2.15S239,87.22,239,87.22l-.3-.54A16.22,16.22,0,0,0,236.1,87.47Z" transform="translate(-2.76 -5.04)"/><path class="cls-66" d="M227.38,56.88l.08-.63S233.35,45.91,245,45.63s14.28,7,14.28,7l2.16-3.28-4.92-10-34.23-.57L214,45.53,212.91,62l3.7,21.74,9,4.8,2.55-2.25c-.94-7.28-6.36-13.93-6.36-13.93l4-2.74s10.14,4.9,16,3.44c0,0,4.41-12.86,4.16-22.39C245.92,50.67,230.9,52.89,227.38,56.88Z" transform="translate(-2.76 -5.04)"/><path class="cls-67" d="M226.86,57.65s.57-3.73,6.86-5.22c7-1.66,12.68-3.06,12.68-3.06s-1.24,4.08-3.57,5.61c0,0-7.41-.27-11.16.59S226.86,57.65,226.86,57.65Z" transform="translate(-2.76 -5.04)"/><path class="cls-67" d="M259.29,52.65s-3.55,2.74-6,9.27c0,0,2.32-3,4.45-3A1.21,1.21,0,0,1,259,60.41,13.65,13.65,0,0,0,259.29,52.65Z" transform="translate(-2.76 -5.04)"/><path class="cls-68" d="M229.21,68.18s.38-7.87,8-9.86a16.16,16.16,0,0,1,3,7.58S236.22,65.14,229.21,68.18Z" transform="translate(-2.76 -5.04)"/><path class="cls-69" d="M251.19,71.3s.62-6.26,4.22-8.57c0,0,2.45,1.83,2.19,7.07C257.6,69.8,255.45,69,251.19,71.3Z" transform="translate(-2.76 -5.04)"/><path class="cls-70" d="M229.21,68.18s2.5,3.06,9.48,3.66a11,11,0,0,0,1.2-6S233.47,65.24,229.21,68.18Z" transform="translate(-2.76 -5.04)"/><path class="cls-70" d="M251.19,71.3v.92s1.07,2.24,4.93,2.62a10.75,10.75,0,0,0,1.34-5.07S255,69.16,251.19,71.3Z" transform="translate(-2.76 -5.04)"/><path class="cls-71" d="M236.67,65.69a8.64,8.64,0,0,0-1.61,5.55,27.19,27.19,0,0,0,3.63.6,9.49,9.49,0,0,0,1.2-6A9.82,9.82,0,0,0,236.67,65.69Z" transform="translate(-2.76 -5.04)"/><path class="cls-71" d="M254.85,69.87s-1,1.08-1.2,4.37a7.61,7.61,0,0,0,2.47.6,9.13,9.13,0,0,0,1.34-5.07A4.35,4.35,0,0,0,254.85,69.87Z" transform="translate(-2.76 -5.04)"/><path class="cls-67" d="M236.1,71.47s-.64-4.24,1.8-5.87l2,.25a8.59,8.59,0,0,1-1.2,6S236.71,71.61,236.1,71.47Z" transform="translate(-2.76 -5.04)"/><path class="cls-67" d="M255.73,69.69a18.14,18.14,0,0,0-1.32,4.83,5.55,5.55,0,0,0,1.71.32,8.31,8.31,0,0,0,1.34-5.07A4,4,0,0,0,255.73,69.69Z" transform="translate(-2.76 -5.04)"/><path class="cls-72" d="M229.21,68.18s4.64-2.7,12.55-1.16L240.3,65.9A13.24,13.24,0,0,0,229.21,68.18Z" transform="translate(-2.76 -5.04)"/><path class="cls-72" d="M251.19,71.3a12.57,12.57,0,0,1,8.06-.93l-1.79-1.32S254.55,68.6,251.19,71.3Z" transform="translate(-2.76 -5.04)"/><path class="cls-11" d="M234.23,68.18a2.74,2.74,0,0,1,2.4.87A2.19,2.19,0,0,1,234.23,68.18Z" transform="translate(-2.76 -5.04)"/><path class="cls-11" d="M252.9,71.84s2-.39,2.66.52C255.56,72.36,254.5,73.09,252.9,71.84Z" transform="translate(-2.76 -5.04)"/><path class="cls-73" d="M229.68,68.64a18.27,18.27,0,0,0,9.38,4.42l.15-2.11-.52.89S233.13,71.51,229.68,68.64Z" transform="translate(-2.76 -5.04)"/><path class="cls-73" d="M251.19,72.22s.64,2.3,5.34,3.35l-.15-1.13-.26.4S252.78,74.41,251.19,72.22Z" transform="translate(-2.76 -5.04)"/><path class="cls-74" d="M241.76,81.44a16.75,16.75,0,0,1,5,0c3.22.38,6.84,1.26,8.82,0,0,0-2.63,2.63-4.91,3s-5.74-1.6-5.74-1.6l-1.52,0A4.19,4.19,0,0,1,241.76,81.44Z" transform="translate(-2.76 -5.04)"/><path class="cls-75" d="M243.61,82.89a2.46,2.46,0,0,1,1.45-.38c.67.13,1.34,1.09,1.34,1.09A6.61,6.61,0,0,0,243.61,82.89Z" transform="translate(-2.76 -5.04)"/><path class="cls-76" d="M255.56,81.44c.84-.82-3.52-8.58-5.6-8.87s-4,8.7-4,8.7,2.9.41,5.71.78S255.56,81.44,255.56,81.44Z" transform="translate(-2.76 -5.04)"/><path class="cls-77" d="M258.67,57c-1.18-.15-5.35,4.92-5.35,4.92s-2.65,8.21-2.13,10.64,7,3.73,7,3.73l.27-.43h0a12.64,12.64,0,0,1-.79-2.46c-.51-2.52.58-8.27,1.37-13a9.67,9.67,0,0,0,.29-1.87C259.32,57.78,259.21,57.06,258.67,57Z" transform="translate(-2.76 -5.04)"/><path class="cls-78" d="M258.48,90.34c-1.33-2.78-.51-4.23-12.06-5.74-16.35-2.15-17.75,2.84-20.53,2.08a2.67,2.67,0,0,1-.33-.12c-3-1.17-10.1-8.14-10.28-17.53-.19-9.76,6.35-16.68,6.35-16.68-2.37-2-3.32-7.76-.76-10.23s6.92-1.89,17.62-.76,10.71.48,10.71.48c3.4.87,5.35,4.06,5.9,5.08.11.2.16.32.16.32L256.59,46a17.42,17.42,0,0,1,2.94,10.89s5.87-11.94,5.2-13.63a45.38,45.38,0,0,0-4.82-8h0s-.95-9.09-3.79-9.09-15,2.74-15,2.74a17.22,17.22,0,0,0,1.14-6.72l-.05.05c-4,3.55-7.83,3.94-13.31,6.48a13.87,13.87,0,0,0-5.13,3.72l-.37.44-.39.47c-.38.48-.77,1-1.24,1.47a.33.33,0,0,1-.06.06l0,0a15.68,15.68,0,0,1-1.59,1.49c-3.6,2.93-11.52,4.89-12.47,8s1.2,7.32,2.34,11.68a23.73,23.73,0,0,1,.61,8.21,16.13,16.13,0,0,1,2.52,12c-1.11,6.37-3.54,7.41-3.54,7.41a10.91,10.91,0,0,0-.9,6.79c3.5,13.92,18,22.21,18,22.21,12.88,4.8,21.35,2.71,21.35,2.71h0c9.37-6.11,12.58-26.33,12.72-27.27C260.57,88.38,258.83,91.08,258.48,90.34Zm-5.78,12.89c-2.27-.38-2.75-6.13-3.5-6.89s-4.87-.44-4.87-.44-3.79,4.3-5.3,4.42-9.6-3.16-7.85-8.08S239,86.68,239,86.68a14.8,14.8,0,0,0,7.89,3c4.74.31,6.45-.56,7-.81s3.62,1.13,3.54,5.43C257.42,97.25,255,103.61,252.7,103.23Z" transform="translate(-2.76 -5.04)"/><path class="cls-79" d="M252.12,74.3s4.08,5.06,3.69,7c-.43,2.09-5.16,3.2-5.16,3.2s3.8-1.31,4.57-3.2A25.08,25.08,0,0,0,252.12,74.3Z" transform="translate(-2.76 -5.04)"/><path class="cls-80" d="M259.53,56.9A17.42,17.42,0,0,0,256.59,46,29.09,29.09,0,0,0,259.9,35.3h0a36.71,36.71,0,0,1,1.54,7.1l3.28.86C265.4,45,259.53,56.9,259.53,56.9Z" transform="translate(-2.76 -5.04)"/><path class="cls-81" d="M255.1,46.92c-.55-1-2.5-4.21-5.9-5.08,0,0,0,.66-10.71-.48s-15.06-1.7-17.62.76-1.61,8.24.76,10.23c0,0-6.54,6.92-6.35,16.68.18,9.39,7.27,16.36,10.28,17.53l-.14,1s.53,21.5,5.76,23.21,16.06.82,17.07,1.83-.14,2.61-.24,2.76h0s-8.47,2.09-21.35-2.71c0,0-14.48-8.29-18-22.21a10.91,10.91,0,0,1,.9-6.79s2.43-1,3.54-7.41a16.13,16.13,0,0,0-2.52-12,23.73,23.73,0,0,0-.61-8.21c-1.14-4.36-3.29-8.59-2.34-11.68a13.64,13.64,0,0,0,10-2.21s1.06-1.47,5.75-2.23S247,41.13,247,41.13a16.2,16.2,0,0,0-5.87-2.61c-3.76-1-16.6.16-18,.27,1.47-.26,16-2.76,17.69-2.26s8.06,3.41,8.06,3.41c-.57-2.89-6.21-9.85-6.21-9.85a88.48,88.48,0,0,0-13.17,1.23,17,17,0,0,0-7.7,3.54L223,33.39l.39-.47.37-.44,1.82-.31,9.14-3.69c3.07-1.64,7-5.7,7.48-6.2l.05-.05A17.22,17.22,0,0,1,241.14,29c7.72-.95,10.33-.47,10.33-.47C255,33.45,255.1,46.92,255.1,46.92Z" transform="translate(-2.76 -5.04)"/><path class="cls-82" d="M226.65,112.7a48.28,48.28,0,0,1,11.88-.83c7.14.28,11.25.31,9.47,3.54C248,115.41,239,117.44,226.65,112.7Z" transform="translate(-2.76 -5.04)"/><path class="cls-83" d="M251.47,28.48s4.35-1.69,6.06-1.41a3.36,3.36,0,0,0-1.39-1.1c-.71-.19-15,3-15,3S250.05,27.91,251.47,28.48Z" transform="translate(-2.76 -5.04)"/><path class="cls-84" d="M242.66,30.09s-.34,4.73-1.85,6.44l-17.69,2.26-5.19-.91a13.08,13.08,0,0,0,4.22-3.44C224.36,31.86,235.89,29.33,242.66,30.09Z" transform="translate(-2.76 -5.04)"/><path class="cls-85" d="M259.9,35.3a39.82,39.82,0,0,1,1.55,7.11l3.28.86A23.45,23.45,0,0,0,259.9,35.3Z" transform="translate(-2.76 -5.04)"/><path class="cls-86" d="M211.7,75.57s-1.24-6-4.29-8.93a7.16,7.16,0,0,0-6.52-2s.94,11.07,1.94,13.77,2.51,3.41,2.51,3.41a8.55,8.55,0,0,1-2.42-5.53c-.28-3.66-.38-8.83.43-9.44s4.06,1.79,4.06,1.79a10.74,10.74,0,0,0-1.65,4.52c-.61,3.26,1.66,5.63,2.51,5.58s0-3.77.1-4.85S210.41,73.06,211.7,75.57Z" transform="translate(-2.76 -5.04)"/><path class="cls-87" d="M208.66,68.15a7.44,7.44,0,0,0-3,6.67c.36,4.49,2.92,4.29,2.93,3.35s-.49-3.37-.23-4.74,2.48-.75,2.48-.75A33,33,0,0,0,208.66,68.15Z" transform="translate(-2.76 -5.04)"/><path class="cls-88" d="M260.73,88.13S256.6,107,248,115.41C248,115.41,257.8,111.56,260.73,88.13Z" transform="translate(-2.76 -5.04)"/><path class="cls-88" d="M256.14,26s2.18,1.7,2.6,7.6S256.59,46,256.59,46a23.73,23.73,0,0,0,3.6-10.27C260.51,30.38,257.87,26.65,256.14,26Z" transform="translate(-2.76 -5.04)"/><path class="cls-89" d="M229.71,38.32a51.22,51.22,0,0,0,10.59,2.21l6.67.6s-2.22-2.16-7-2.81A48.05,48.05,0,0,0,229.71,38.32Z" transform="translate(-2.76 -5.04)"/><path class="cls-90" d="M254.11,88.54s2.41,0,3.37,3a25.52,25.52,0,0,1,1,4.5l.86-3.33s-1.12-4.21-2.28-5.15c-.83-.68-2.27-1.38-3-1.21Z" transform="translate(-2.76 -5.04)"/><path class="cls-91" d="M247.6,85.51l.4,3.6a12.8,12.8,0,0,0,4.9-.57l.34-2.17A27.37,27.37,0,0,0,247.6,85.51Z" transform="translate(-2.76 -5.04)"/><path class="cls-88" d="M261,132s17.23,12.58,19.47,16.91,3.14,17.9,6.16,23.78c0,0-2.07-9.61-3.52-17.14s-1.1-7.65-1.9-9.49S267.55,135.32,261,132Z" transform="translate(-2.76 -5.04)"/><path class="cls-88" d="M257.94,202.08S249.63,237.63,250,240s5.75,7.3,6,8.64c0,0-4.1,5.5-3.91,6.72s7.19,8.93,7,11.31c-.06.69-4.61,8.19-4.61,8.19s5.14-7.37,5.4-8.55-6.3-11-6.49-12c-.5-2.59,3.26-4.49,3.39-6.2s-5.09-5.87-5.14-8.65S257.94,202.08,257.94,202.08Z" transform="translate(-2.76 -5.04)"/><path class="cls-88" d="M259.62,286.81s17.95,40.64,24.08,81.27C283.7,368.08,282.67,328.43,259.62,286.81Z" transform="translate(-2.76 -5.04)"/><path class="cls-76" d="M145.81,123.88s-4.64-1-6.57-5-.67-9.92-.67-9.92a102.24,102.24,0,0,0,5.45,9.36C145.83,120.66,146.32,123.38,145.81,123.88Z" transform="translate(-2.76 -5.04)"/><path class="cls-92" d="M289.12,102.7l3.22,91.79A6.77,6.77,0,0,0,299.1,201H457.23a6.77,6.77,0,0,0,6.77-6.6l2.21-92.87a6.77,6.77,0,0,0-6.81-6.93L295.84,95.7A6.77,6.77,0,0,0,289.12,102.7Z" transform="translate(-2.76 -5.04)"/><path class="cls-93" d="M457.23,201.27H299.1a7,7,0,0,1-7-6.77l-3.22-91.8a7,7,0,0,1,7-7.25L459.4,94.37a7.06,7.06,0,0,1,5.05,2.1,6.94,6.94,0,0,1,2,5.08l-2.21,92.87A7,7,0,0,1,457.23,201.27Zm2.22-106.4h-.05L295.84,96a6.51,6.51,0,0,0-6.47,6.74l3.22,91.79a6.5,6.5,0,0,0,6.51,6.29H457.23a6.56,6.56,0,0,0,6.52-6.36L466,101.54a6.52,6.52,0,0,0-6.51-6.67Z" transform="translate(-2.76 -5.04)"/><path class="cls-94" d="M289.36,107.37H466l.29-4.84a7.42,7.42,0,0,0-7.46-7.85L295.34,96a6.13,6.13,0,0,0-6.08,6.24Z" transform="translate(-2.76 -5.04)"/><polygon class="cls-95" points="295.48 109.73 295.48 162.86 349.56 162.86 349.56 109.45 295.48 109.73"/><rect class="cls-96" x="401.81" y="113.3" width="23.52" height="23.52"/><rect class="cls-97" x="429.57" y="113.3" width="23.52" height="23.52"/><rect class="cls-98" x="373.6" y="113.3" width="23.52" height="23.52"/><rect class="cls-99" x="392.94" y="150.54" width="60.15" height="5.63"/><rect class="cls-99" x="377.89" y="159.11" width="75.2" height="1.74"/><rect class="cls-99" x="378.6" y="139.82" width="14.39" height="1.74"/><rect class="cls-99" x="406.38" y="139.82" width="14.39" height="1.74"/><rect class="cls-99" x="434.14" y="139.82" width="14.39" height="1.74"/><rect class="cls-99" x="373.6" y="161.94" width="24.19" height="1.74"/><rect class="cls-99" x="377.89" y="164.75" width="75.2" height="1.74"/><rect class="cls-99" x="373.6" y="167.55" width="79.49" height="1.74"/><rect class="cls-99" x="373.6" y="170.35" width="79.49" height="1.74"/><rect class="cls-99" x="377.89" y="181.67" width="75.2" height="1.74"/><rect class="cls-99" x="373.6" y="184.47" width="79.49" height="1.74"/><rect class="cls-99" x="373.6" y="187.27" width="79.49" height="1.74"/><rect class="cls-99" x="373.6" y="173.15" width="76.3" height="1.74"/><rect class="cls-99" x="377.89" y="175.95" width="75.2" height="1.74"/><rect class="cls-99" x="373.6" y="178.75" width="64.41" height="1.74"/><g class="cls-100"><path class="cls-101" d="M313.39,157.25a15.39,15.39,0,1,1,15.38-15.38A15.4,15.4,0,0,1,313.39,157.25Zm0-29.77a14.39,14.39,0,1,0,14.38,14.39A14.4,14.4,0,0,0,313.39,127.48Z" transform="translate(-2.76 -5.04)"/></g><circle class="cls-11" cx="310.63" cy="136.82" r="8.36"/><g class="cls-100"><path class="cls-101" d="M352.32,129.88A15.38,15.38,0,1,1,367.7,114.5,15.4,15.4,0,0,1,352.32,129.88Zm0-29.76A14.38,14.38,0,1,0,366.7,114.5,14.4,14.4,0,0,0,352.32,100.12Z" transform="translate(-2.76 -5.04)"/></g><circle class="cls-11" cx="352.32" cy="114.5" r="7.87" transform="translate(181.68 439.69) rotate(-81.06)"/><g class="cls-100"><polygon class="cls-11" points="292.79 95.12 293.91 93.41 299.99 98.74 299.06 100.04 292.79 95.12"/><polygon class="cls-11" points="300.15 95.12 299.02 93.41 292.94 98.74 293.88 100.04 300.15 95.12"/></g><rect class="cls-11" x="404.55" y="94.57" width="54.44" height="2.73"/><polygon class="cls-102" points="118.05 55.16 118.05 78.78 146.31 79.03 146.69 54.4 118.05 55.16"/><polygon class="cls-103" points="146.69 54.4 148.53 57.51 147.61 79 146.31 79.03 146.69 54.4"/><polygon class="cls-11" points="123.1 63.13 125.71 59.35 139.82 71.19 137.65 74.08 123.1 63.13"/><polygon class="cls-11" points="140.18 63.13 137.57 59.35 123.46 71.19 125.63 74.08 140.18 63.13"/><path class="cls-104" d="M186.73,338.26H90a7.91,7.91,0,0,1-7.91-7.74l-1.81-79.3a7.92,7.92,0,0,1,7.92-8.1H188.91a7.91,7.91,0,0,1,7.91,8.13l-2.17,79.31A7.92,7.92,0,0,1,186.73,338.26Z" transform="translate(-2.76 -5.04)"/><path class="cls-105" d="M186.73,338.51H90a8.21,8.21,0,0,1-8.16-8l-1.81-79.31a8.18,8.18,0,0,1,8.17-8.35H188.91a8.16,8.16,0,0,1,8.16,8.39l-2.17,79.31A8.13,8.13,0,0,1,186.73,338.51ZM88.24,243.37a7.68,7.68,0,0,0-7.67,7.84l1.81,79.31A7.71,7.71,0,0,0,90,338h96.69a7.63,7.63,0,0,0,7.67-7.46l2.17-79.3a7.67,7.67,0,0,0-7.66-7.88Z" transform="translate(-2.76 -5.04)"/><rect class="cls-11" x="103.63" y="254.3" width="50.85" height="2.18"/><rect class="cls-11" x="103.63" y="259.59" width="25.42" height="2.18"/><rect class="cls-11" x="103.63" y="264.01" width="25.42" height="2.18"/><rect class="cls-11" x="131.9" y="264.01" width="20.23" height="2.18"/><rect class="cls-11" x="103.63" y="268.43" width="40.99" height="2.18"/><rect class="cls-11" x="103.63" y="272.85" width="14.59" height="2.18"/><rect class="cls-11" x="121.22" y="286.12" width="25.23" height="2.18"/><rect class="cls-11" x="103.63" y="277.28" width="45.73" height="2.18"/><rect class="cls-11" x="103.63" y="281.7" width="35.18" height="2.18"/><rect class="cls-11" x="103.63" y="286.12" width="16.55" height="2.18"/><rect class="cls-11" x="103.63" y="290.54" width="25.42" height="2.18"/><rect class="cls-11" x="103.63" y="294.96" width="7.29" height="2.18"/><rect class="cls-11" x="113.92" y="294.96" width="26.46" height="2.18"/><rect class="cls-11" x="121.22" y="299.25" width="25.23" height="2.18"/><rect class="cls-11" x="103.63" y="299.25" width="16.55" height="2.18"/><rect class="cls-11" x="103.63" y="303.67" width="25.42" height="2.18"/><rect class="cls-11" x="103.63" y="308.09" width="7.29" height="2.18"/><rect class="cls-11" x="113.92" y="308.09" width="26.46" height="2.18"/><path class="cls-106" d="M446.18,76.92a4.47,4.47,0,1,1-4.47-4.47A4.47,4.47,0,0,1,446.18,76.92Z" transform="translate(-2.76 -5.04)"/><path class="cls-107" d="M27.28,180.56A5.56,5.56,0,1,1,21.72,175,5.56,5.56,0,0,1,27.28,180.56Z" transform="translate(-2.76 -5.04)"/><circle class="cls-108" cx="452.08" cy="71.88" r="4.47"/><circle class="cls-109" cx="163.91" cy="102.6" r="3.16"/><circle class="cls-110" cx="375.56" cy="242.04" r="3.16"/><circle class="cls-111" cx="47.04" cy="273.55" r="2.82"/><path class="cls-112" d="M98,250.85H49.16a7.28,7.28,0,0,1-7.28-7l-1.08-32.1a7.28,7.28,0,0,1,7.28-7.53H98.94a7.29,7.29,0,0,1,7.28,7.51l-1,32.09A7.28,7.28,0,0,1,98,250.85Z" transform="translate(-2.76 -5.04)"/><path class="cls-113" d="M98,251.1H49.16a7.5,7.5,0,0,1-7.53-7.28l-1.08-32.09a7.53,7.53,0,0,1,7.53-7.79H98.94a7.53,7.53,0,0,1,7.53,7.76l-1,32.1A7.51,7.51,0,0,1,98,251.1ZM48.08,204.44a7,7,0,0,0-7,7.27l1.08,32.1a7,7,0,0,0,7,6.79H98a7,7,0,0,0,7-6.82l1-32.09a7,7,0,0,0-7-7.25Z" transform="translate(-2.76 -5.04)"/><polygon class="cls-11" points="59.41 210.68 47.38 224.62 59.63 235.03 59.63 229.66 52.54 223.52 59.12 216.08 59.41 210.68"/><polygon class="cls-11" points="80.56 211.3 92.59 225.25 80.34 235.65 80.34 230.28 87.42 224.15 79.54 215.8 80.56 211.3"/><polygon class="cls-11" points="62.03 235.03 72.51 211.93 77.44 211.93 65.57 235.03 62.03 235.03"/><path class="cls-114" d="M426.29,316.9H365.24a9.12,9.12,0,0,1-9.11-8.8L354.78,268a9.1,9.1,0,0,1,9.1-9.42h63.63a9.11,9.11,0,0,1,9.11,9.39l-1.23,40.15A9.11,9.11,0,0,1,426.29,316.9Z" transform="translate(-2.76 -5.04)"/><path class="cls-113" d="M426.29,317.15H365.24a9.32,9.32,0,0,1-9.36-9L354.53,268a9.34,9.34,0,0,1,9.35-9.68h63.63a9.36,9.36,0,0,1,9.36,9.65l-1.23,40.15A9.3,9.3,0,0,1,426.29,317.15Zm-62.41-58.37a8.85,8.85,0,0,0-8.85,9.16l1.35,40.15a8.82,8.82,0,0,0,8.86,8.56h61.05a8.81,8.81,0,0,0,8.85-8.59l1.23-40.15a8.86,8.86,0,0,0-8.86-9.13Z" transform="translate(-2.76 -5.04)"/><rect class="cls-99" x="364.25" y="259.95" width="55.91" height="33.21"/><polygon class="cls-11" points="387.25 268.19 387.25 284.92 401.54 275.79 387.25 268.19"/><rect class="cls-99" x="364.25" y="299.27" width="55.91" height="3.04"/><rect class="cls-11" x="364.25" y="299.27" width="14.47" height="3.04"/><path class="cls-115" d="M326.05,254.5l-2.92,8.35C324.74,258.23,327.06,255.24,326.05,254.5Zm-2.92,8.35-2.92,8.34C320.94,271,321.51,267.46,323.13,262.85Zm2.92-8.35-2.92,8.35C324.74,258.23,327.06,255.24,326.05,254.5Zm-2.92,8.35-2.92,8.34C320.94,271,321.51,267.46,323.13,262.85Zm8.43,7.23,2.83,1.6,3.06-8.35-3.28-.55c.06-.31.12-.62.16-.92a22.2,22.2,0,0,0,.28-4.17l3.42-2.15-1.56-7.35-3.28,3.14a9.92,9.92,0,0,0-1.68-2.45,7.5,7.5,0,0,0-.57-.56l2-4.64-5.35-1.74h0l-1.29,4.68a8.77,8.77,0,0,0-3.62.85l-.59-4.42-5.88,4.45,1.36,3.92a21.88,21.88,0,0,0-2.88,4.18l-2.83-1.6-3.06,8.36,3.28.54a22.67,22.67,0,0,0-.44,5.09l-3.43,2.16,1.56,7.35,3.29-3.14a9.32,9.32,0,0,0,2.25,3l-2,4.64,5.26,2.06.82-3,.55-2a8.94,8.94,0,0,0,3.63-.85l.58,4.42,5.89-4.46-1.36-3.91a23.16,23.16,0,0,0,2.32-3.21C331.19,270.74,331.37,270.41,331.56,270.08Zm-8.43-7.23c-1.62,4.61,0,9.36-2.92,8.34s-4-5.6-2.39-10.2,5.3-7.52,8.23-6.49S324.74,258.23,323.13,262.85Zm2.92-8.35-2.92,8.35C324.74,258.23,327.06,255.24,326.05,254.5Zm-2.92,8.35-2.92,8.34C320.94,271,321.51,267.46,323.13,262.85Z" transform="translate(-2.76 -5.04)"/><path class="cls-116" d="M334.39,271.68l3.06-8.35-3.12-1.47-.51-.24.33-4.6,3.47-1.69-1.15-7.14-7.54-2.46,1.39,3.31,2.63-5.36-5.35-1.74-2.2-.71-5.27-2.06-1,3.6-4.59-2.18-5.89,4.46,1.79,4.81L305,265.13,302.23,275l5.23.57-1.7,3.93L311,281.6l7.54,2.46-1.21-2.43-.76-1.45,2.79.91,4.76,1.55,5.89-4.46-3.64-4.28,4.6-2.84ZM317.82,261c1.62-4.61,5.3-7.52,8.23-6.49l-2.92,8.35-2.92,8.34C317.28,270.16,316.21,265.59,317.82,261Z" transform="translate(-2.76 -5.04)"/><path class="cls-117" d="M326.85,269.22l3-8.35-3.28-.55a22.44,22.44,0,0,0,.44-5.08l3.43-2.15-1.56-7.36-3.29,3.14a9.17,9.17,0,0,0-2.25-3l2-4.64-5.27-2.06-1.36,5a8.93,8.93,0,0,0-3.63.84l-.58-4.41L308.67,245,310,249a22.91,22.91,0,0,0-2.88,4.19l-2.83-1.6-3.06,8.35,3.28.55a23,23,0,0,0-.44,5.08l-3.43,2.15,1.57,7.36,3.28-3.14a9.32,9.32,0,0,0,2.25,3l-2,4.64L311,281.6l1.37-5a8.93,8.93,0,0,0,3.62-.85l.58,4.42,5.89-4.45-1.35-3.92a23.39,23.39,0,0,0,2.87-4.19Zm-14.19-.49c-2.93-1-4-5.59-2.38-10.2s5.3-7.52,8.22-6.49,4,5.59,2.38,10.2S315.59,269.76,312.66,268.73Z" transform="translate(-2.76 -5.04)"/><polygon class="cls-118" points="335.27 250.5 327.73 248.04 324.3 250.19 331.85 252.65 335.27 250.5"/><polygon class="cls-119" points="327.28 273.14 319.73 270.68 318.38 266.76 325.92 269.22 327.28 273.14"/><polygon class="cls-118" points="320.63 240.82 324.77 242.02 326.17 240.69 328.91 241.58 330.19 238.64 322.64 236.18 320.63 240.82"/><path class="cls-118" d="M312.4,276.61l4,1.64-.33-2.49A7.06,7.06,0,0,1,312.4,276.61Z" transform="translate(-2.76 -5.04)"/><path class="cls-118" d="M313,254l6.65,3.51a10.23,10.23,0,0,1,1.71-1.81S319.64,248.35,313,254Z" transform="translate(-2.76 -5.04)"/><polygon class="cls-120" points="157.49 0 163.91 12.85 159.62 14.8 153.62 3 157.49 0"/><polygon class="cls-121" points="13.04 299.34 18.98 305.86 21.31 303.17 15.71 297 13.04 299.34"/><polygon class="cls-122" points="314.82 78.41 308.84 82.03 306.44 77.49 312.98 73.67 314.82 78.41"/><polygon class="cls-122" points="344.26 308.12 335.69 314.21 333.3 309.66 341.62 304.8 344.26 308.12"/><polygon class="cls-123" points="332.94 47.33 331.49 13.68 375.56 13.68 373.75 47.24 332.94 47.33"/><polygon class="cls-124" points="331.49 13.68 330.17 15.66 331.49 47.33 332.94 47.33 331.49 13.68"/><polygon class="cls-11" points="346.13 20.4 339.21 19.66 340.16 42.72 346.13 42.13 346.13 39.75 342.67 39.83 342.27 22.04 346.13 22.15 346.13 20.4"/><polygon class="cls-11" points="360.29 20.4 367.2 19.66 366.26 42.72 360.29 42.13 360.29 39.75 363.75 39.83 364.14 22.04 360.29 22.15 360.29 20.4"/><polygon class="cls-125" points="29.06 121.02 30.04 98.07 0 98.07 1.24 120.95 29.06 121.02"/><polygon class="cls-126" points="30.04 98.07 30.94 99.42 30.04 121.02 29.06 121.02 30.04 98.07"/><path class="cls-11" d="M21.23,107.73a20.83,20.83,0,0,1,3.88.14c.58.27-.16,5.64-.16,5.64l1.32,1.2L25,115.9s.07,5.45-.71,5.9-3.42,0-3.42,0v-1.36a7.88,7.88,0,0,0,2.52-.15c.35-.29.32-5.05.32-5.05l.58-.63-.58-.69s.11-3.39,0-4.32c0-.62-2.56-.65-2.56-.65Z" transform="translate(-2.76 -5.04)"/><path class="cls-11" d="M13.69,107.73a20.8,20.8,0,0,0-3.88.14c-.58.27.15,5.64.15,5.64l-1.31,1.2,1.22,1.19s-.06,5.45.71,5.9,3.43,0,3.43,0v-1.36a7.86,7.86,0,0,1-2.52-.15c-.36-.29-.32-5.05-.32-5.05l-.59-.63.59-.69s-.11-3.39-.05-4.32c.05-.62,2.57-.65,2.57-.65Z" transform="translate(-2.76 -5.04)"/></g></g></svg>