<?xml version="1.0" encoding="UTF-8"?>
<!DOCTYPE svg PUBLIC "-//W3C//DTD SVG 1.1//EN" "http://www.w3.org/Graphics/SVG/1.1/DTD/svg11.dtd">
<!-- Creator: CorelDRAW X8 -->
<svg xmlns="http://www.w3.org/2000/svg" xml:space="preserve" width="52.9166mm" height="52.9166mm" version="1.1" style="shape-rendering:geometricPrecision; text-rendering:geometricPrecision; image-rendering:optimizeQuality; fill-rule:evenodd; clip-rule:evenodd"
viewBox="0 0 5292 5292"
 xmlns:xlink="http://www.w3.org/1999/xlink">
 <defs>
  <style type="text/css">
   <![CDATA[
    .fil0 {fill:#FEFEFE;fill-rule:nonzero}
   ]]>
  </style>
 </defs>
 <g id="Capa_x0020_1">
  <metadata id="CorelCorpID_0Corel-Layer"/>
  <g id="_2161798035952">
   <g>
    <path class="fil0" d="M2643 4194c-864,0 -1568,-703 -1568,-1568 0,-865 704,-1568 1568,-1568 865,0 1569,703 1569,1568 0,865 -704,1568 -1569,1568zm0 -2935l0 0c-753,0 -1366,613 -1366,1367 0,753 613,1367 1366,1367 754,0 1367,-614 1367,-1367 0,-754 -613,-1367 -1367,-1367z"/>
   </g>
   <g>
    <path class="fil0" d="M2643 4144c-28,0 -50,-23 -50,-51l0 -2935c0,-28 22,-50 50,-50 28,0 51,22 51,50l0 2935c0,28 -23,51 -51,51z"/>
   </g>
   <g>
    <path class="fil0" d="M2136 4027c-18,0 -36,-10 -45,-27 -747,-1401 -7,-2736 1,-2750 13,-24 44,-32 68,-19 25,14 33,45 19,69 -7,13 -719,1301 1,2653 13,24 4,55 -21,68 -7,4 -15,6 -23,6z"/>
   </g>
   <g>
    <path class="fil0" d="M3151 4027c-8,0 -16,-2 -24,-6 -24,-13 -34,-44 -21,-68 721,-1353 8,-2640 1,-2653 -14,-24 -5,-55 19,-69 24,-13 55,-5 69,19 7,14 747,1349 0,2750 -9,17 -26,27 -44,27z"/>
   </g>
   <g>
    <path class="fil0" d="M1293 2171c-18,0 -36,-9 -45,-26 -13,-25 -3,-56 21,-69 1401,-746 2736,-7 2750,1 24,14 32,44 19,69 -14,24 -45,32 -69,19 -13,-8 -1301,-720 -2652,0 -8,4 -16,6 -24,6z"/>
   </g>
   <g>
    <path class="fil0" d="M2607 3514c-407,0 -869,-83 -1338,-333 -24,-13 -34,-44 -21,-68 13,-25 44,-34 69,-21 1352,721 2639,8 2652,0 24,-13 55,-5 69,19 13,25 5,55 -19,69 -9,5 -603,334 -1412,334z"/>
   </g>
  </g>
 </g>
</svg>
